<?xml version="1.0" encoding="UTF-8" standalone="no"?>
<!DOCTYPE svg PUBLIC "-//W3C//DTD SVG 1.1//EN"
 "http://www.w3.org/Graphics/SVG/1.1/DTD/svg11.dtd">
<!-- Generated by graphviz version 2.40.1 (20161225.0304)
 -->
<!-- Title: dependencies Pages: 1 -->
<svg width="1482pt" height="284pt"
 viewBox="0.00 0.00 1482.00 284.00" xmlns="http://www.w3.org/2000/svg" xmlns:xlink="http://www.w3.org/1999/xlink">
<g id="graph0" class="graph" transform="scale(1 1) rotate(0) translate(4 280)">
<title>dependencies</title>
<polygon fill="#ffffff" stroke="transparent" points="-4,4 -4,-280 1478,-280 1478,4 -4,4"/>
<text text-anchor="start" x="716.0091" y="-42.4" font-family="sans-serif" font-weight="bold" font-size="14.00" fill="#000000">Legend</text>
<polygon fill="#ffffb3" stroke="transparent" points="503,-10 503,-30 523,-30 523,-10 503,-10"/>
<text text-anchor="start" x="526.629" y="-15.4" font-family="sans-serif" font-size="14.00" fill="#000000"> &#160;Declarations</text>
<polygon fill="#8dd3c7" stroke="transparent" points="616,-10 616,-30 636,-30 636,-10 616,-10"/>
<text text-anchor="start" x="639.7251" y="-15.4" font-family="sans-serif" font-size="14.00" fill="#000000"> &#160;Module</text>
<polygon fill="#80b1d3" stroke="transparent" points="702,-10 702,-30 722,-30 722,-10 702,-10"/>
<text text-anchor="start" x="725.7812" y="-15.4" font-family="sans-serif" font-size="14.00" fill="#000000"> &#160;Bootstrap</text>
<polygon fill="#fdb462" stroke="transparent" points="799,-10 799,-30 819,-30 819,-10 799,-10"/>
<text text-anchor="start" x="822.6732" y="-15.4" font-family="sans-serif" font-size="14.00" fill="#000000"> &#160;Providers</text>
<polygon fill="#fb8072" stroke="transparent" points="895,-10 895,-30 915,-30 915,-10 895,-10"/>
<text text-anchor="start" x="918.7258" y="-15.4" font-family="sans-serif" font-size="14.00" fill="#000000"> &#160;Exports</text>
<g id="clust1" class="cluster">
<title>cluster_CoreModule</title>
<polygon fill="none" stroke="#000000" stroke-dasharray="1,5" points="8,-70 8,-268 1466,-268 1466,-70 8,-70"/>
</g>
<g id="clust2" class="cluster">
<title>cluster_CoreModule_declarations</title>
<polygon fill="none" stroke="#000000" points="1034,-78 1034,-130 1458,-130 1458,-78 1034,-78"/>
</g>
<g id="clust6" class="cluster">
<title>cluster_CoreModule_imports</title>
<polygon fill="none" stroke="#000000" points="234,-78 234,-130 1026,-130 1026,-78 234,-78"/>
</g>
<g id="clust7" class="cluster">
<title>cluster_CoreModule_exports</title>
<polygon fill="none" stroke="#000000" points="399,-208 399,-260 1069,-260 1069,-208 399,-208"/>
</g>
<g id="clust9" class="cluster">
<title>cluster_CoreModule_providers</title>
<polygon fill="none" stroke="#000000" points="16,-78 16,-130 226,-130 226,-78 16,-78"/>
</g>
<!-- LoginComponent -->
<g id="node1" class="node">
<title>LoginComponent</title>
<polygon fill="#ffffb3" stroke="#000000" points="1450.2758,-122 1335.7242,-122 1335.7242,-86 1450.2758,-86 1450.2758,-122"/>
<text text-anchor="middle" x="1393" y="-99.8" font-family="Times,serif" font-size="14.00" fill="#000000">LoginComponent</text>
</g>
<!-- CoreModule -->
<g id="node4" class="node">
<title>CoreModule</title>
<polygon fill="#8dd3c7" stroke="#000000" points="787.2619,-187 784.2619,-191 763.2619,-191 760.2619,-187 700.7381,-187 700.7381,-151 787.2619,-151 787.2619,-187"/>
<text text-anchor="middle" x="744" y="-164.8" font-family="Times,serif" font-size="14.00" fill="#000000">CoreModule</text>
</g>
<!-- LoginComponent&#45;&gt;CoreModule -->
<g id="edge1" class="edge">
<title>LoginComponent&#45;&gt;CoreModule</title>
<path fill="none" stroke="#000000" d="M1393,-122.2228C1393,-142.3652 1393,-172 1393,-172 1393,-172 797.3376,-172 797.3376,-172"/>
<polygon fill="#000000" stroke="#000000" points="797.3376,-168.5001 787.3376,-172 797.3375,-175.5001 797.3376,-168.5001"/>
</g>
<!-- AdminComponent -->
<g id="node2" class="node">
<title>AdminComponent</title>
<polygon fill="#ffffb3" stroke="#000000" points="1318.2204,-122 1197.7796,-122 1197.7796,-86 1318.2204,-86 1318.2204,-122"/>
<text text-anchor="middle" x="1258" y="-99.8" font-family="Times,serif" font-size="14.00" fill="#000000">AdminComponent</text>
</g>
<!-- AdminComponent&#45;&gt;CoreModule -->
<g id="edge2" class="edge">
<title>AdminComponent&#45;&gt;CoreModule</title>
<path fill="none" stroke="#000000" d="M1258,-122.2222C1258,-140.8285 1258,-167 1258,-167 1258,-167 797.3804,-167 797.3804,-167"/>
<polygon fill="#000000" stroke="#000000" points="797.3804,-163.5001 787.3804,-167 797.3803,-170.5001 797.3804,-163.5001"/>
</g>
<!-- EmployesComponent -->
<g id="node3" class="node">
<title>EmployesComponent</title>
<polygon fill="#ffffb3" stroke="#000000" points="1179.8258,-122 1042.1742,-122 1042.1742,-86 1179.8258,-86 1179.8258,-122"/>
<text text-anchor="middle" x="1111" y="-99.8" font-family="Times,serif" font-size="14.00" fill="#000000">EmployesComponent</text>
</g>
<!-- EmployesComponent&#45;&gt;CoreModule -->
<g id="edge3" class="edge">
<title>EmployesComponent&#45;&gt;CoreModule</title>
<path fill="none" stroke="#000000" d="M1051.7376,-122.0336C1051.7376,-139.0597 1051.7376,-162 1051.7376,-162 1051.7376,-162 797.4386,-162 797.4386,-162"/>
<polygon fill="#000000" stroke="#000000" points="797.4386,-158.5001 787.4386,-162 797.4385,-165.5001 797.4386,-158.5001"/>
</g>
<!-- LoginComponent  -->
<g id="node11" class="node">
<title>LoginComponent </title>
<polygon fill="#fb8072" stroke="#000000" points="1061.2759,-252 942.7241,-252 942.7241,-216 1061.2759,-216 1061.2759,-252"/>
<text text-anchor="middle" x="1002" y="-229.8" font-family="Times,serif" font-size="14.00" fill="#000000">LoginComponent </text>
</g>
<!-- CoreModule&#45;&gt;LoginComponent  -->
<g id="edge10" class="edge">
<title>CoreModule&#45;&gt;LoginComponent </title>
<path fill="none" stroke="#000000" stroke-dasharray="5,2" d="M787.3499,-177C855.5815,-177 980.348,-177 980.348,-177 980.348,-177 980.348,-205.9648 980.348,-205.9648"/>
<polygon fill="#000000" stroke="#000000" points="976.8481,-205.9648 980.348,-215.9648 983.8481,-205.9649 976.8481,-205.9648"/>
</g>
<!-- RouterModule  -->
<g id="node12" class="node">
<title>RouterModule </title>
<polygon fill="#fb8072" stroke="#000000" points="924.6523,-252 823.3477,-252 823.3477,-216 924.6523,-216 924.6523,-252"/>
<text text-anchor="middle" x="874" y="-229.8" font-family="Times,serif" font-size="14.00" fill="#000000">RouterModule </text>
</g>
<!-- CoreModule&#45;&gt;RouterModule  -->
<g id="edge11" class="edge">
<title>CoreModule&#45;&gt;RouterModule </title>
<path fill="none" stroke="#000000" stroke-dasharray="5,2" d="M787.4989,-182C818.8573,-182 855.6818,-182 855.6818,-182 855.6818,-182 855.6818,-205.8129 855.6818,-205.8129"/>
<polygon fill="#000000" stroke="#000000" points="852.1819,-205.8129 855.6818,-215.8129 859.1819,-205.813 852.1819,-205.8129"/>
</g>
<!-- AdminComponent  -->
<g id="node13" class="node">
<title>AdminComponent </title>
<polygon fill="#fb8072" stroke="#000000" points="805.7205,-252 682.2795,-252 682.2795,-216 805.7205,-216 805.7205,-252"/>
<text text-anchor="middle" x="744" y="-229.8" font-family="Times,serif" font-size="14.00" fill="#000000">AdminComponent </text>
</g>
<!-- CoreModule&#45;&gt;AdminComponent  -->
<g id="edge12" class="edge">
<title>CoreModule&#45;&gt;AdminComponent </title>
<path fill="none" stroke="#000000" stroke-dasharray="5,2" d="M744,-187.1061C744,-187.1061 744,-205.991 744,-205.991"/>
<polygon fill="#000000" stroke="#000000" points="740.5001,-205.9909 744,-215.991 747.5001,-205.991 740.5001,-205.9909"/>
</g>
<!-- EmployesComponent  -->
<g id="node14" class="node">
<title>EmployesComponent </title>
<polygon fill="#fb8072" stroke="#000000" points="664.3255,-252 523.6745,-252 523.6745,-216 664.3255,-216 664.3255,-252"/>
<text text-anchor="middle" x="594" y="-229.8" font-family="Times,serif" font-size="14.00" fill="#000000">EmployesComponent </text>
</g>
<!-- CoreModule&#45;&gt;EmployesComponent  -->
<g id="edge13" class="edge">
<title>CoreModule&#45;&gt;EmployesComponent </title>
<path fill="none" stroke="#000000" stroke-dasharray="5,2" d="M700.5727,-182C668.0436,-182 629.1302,-182 629.1302,-182 629.1302,-182 629.1302,-205.8129 629.1302,-205.8129"/>
<polygon fill="#000000" stroke="#000000" points="625.6303,-205.8129 629.1302,-215.8129 632.6303,-205.813 625.6303,-205.8129"/>
</g>
<!-- FormsModule  -->
<g id="node15" class="node">
<title>FormsModule </title>
<polygon fill="#fb8072" stroke="#000000" points="505.3283,-252 406.6717,-252 406.6717,-216 505.3283,-216 505.3283,-252"/>
<text text-anchor="middle" x="456" y="-229.8" font-family="Times,serif" font-size="14.00" fill="#000000">FormsModule </text>
</g>
<!-- CoreModule&#45;&gt;FormsModule  -->
<g id="edge14" class="edge">
<title>CoreModule&#45;&gt;FormsModule </title>
<path fill="none" stroke="#000000" stroke-dasharray="5,2" d="M700.6604,-177C626.1149,-177 481.5419,-177 481.5419,-177 481.5419,-177 481.5419,-205.9648 481.5419,-205.9648"/>
<polygon fill="#000000" stroke="#000000" points="478.042,-205.9648 481.5419,-215.9648 485.042,-205.9649 478.042,-205.9648"/>
</g>
<!-- CommonModule -->
<g id="node5" class="node">
<title>CommonModule</title>
<polygon fill="#8dd3c7" stroke="#000000" points="1017.6681,-122 1014.6681,-126 993.6681,-126 990.6681,-122 906.3319,-122 906.3319,-86 1017.6681,-86 1017.6681,-122"/>
<text text-anchor="middle" x="962" y="-99.8" font-family="Times,serif" font-size="14.00" fill="#000000">CommonModule</text>
</g>
<!-- CommonModule&#45;&gt;CoreModule -->
<g id="edge4" class="edge">
<title>CommonModule&#45;&gt;CoreModule</title>
<path fill="none" stroke="#000000" d="M915.3712,-122.2396C915.3712,-137.5706 915.3712,-157 915.3712,-157 915.3712,-157 797.6876,-157 797.6876,-157"/>
<polygon fill="#000000" stroke="#000000" points="797.6876,-153.5001 787.6876,-157 797.6876,-160.5001 797.6876,-153.5001"/>
</g>
<!-- CoreRootingModule -->
<g id="node6" class="node">
<title>CoreRootingModule</title>
<polygon fill="#8dd3c7" stroke="#000000" points="887.8795,-122 884.8795,-126 863.8795,-126 860.8795,-122 756.1205,-122 756.1205,-86 887.8795,-86 887.8795,-122"/>
<text text-anchor="middle" x="822" y="-99.8" font-family="Times,serif" font-size="14.00" fill="#000000">CoreRootingModule</text>
</g>
<!-- CoreRootingModule&#45;&gt;CoreModule -->
<g id="edge5" class="edge">
<title>CoreRootingModule&#45;&gt;CoreModule</title>
<path fill="none" stroke="#000000" d="M771.7206,-122.1061C771.7206,-122.1061 771.7206,-140.991 771.7206,-140.991"/>
<polygon fill="#000000" stroke="#000000" points="768.2206,-140.9909 771.7206,-150.991 775.2206,-140.991 768.2206,-140.9909"/>
</g>
<!-- ReactiveFormsModule -->
<g id="node7" class="node">
<title>ReactiveFormsModule</title>
<polygon fill="#8dd3c7" stroke="#000000" points="738.3047,-122 735.3047,-126 714.3047,-126 711.3047,-122 593.6953,-122 593.6953,-86 738.3047,-86 738.3047,-122"/>
<text text-anchor="middle" x="666" y="-99.8" font-family="Times,serif" font-size="14.00" fill="#000000">ReactiveFormsModule</text>
</g>
<!-- ReactiveFormsModule&#45;&gt;CoreModule -->
<g id="edge6" class="edge">
<title>ReactiveFormsModule&#45;&gt;CoreModule</title>
<path fill="none" stroke="#000000" d="M719.3857,-122.1061C719.3857,-122.1061 719.3857,-140.991 719.3857,-140.991"/>
<polygon fill="#000000" stroke="#000000" points="715.8858,-140.9909 719.3857,-150.991 722.8858,-140.991 715.8858,-140.9909"/>
</g>
<!-- HttpClientModule -->
<g id="node8" class="node">
<title>HttpClientModule</title>
<polygon fill="#8dd3c7" stroke="#000000" points="576.1611,-122 573.1611,-126 552.1611,-126 549.1611,-122 457.8389,-122 457.8389,-86 576.1611,-86 576.1611,-122"/>
<text text-anchor="middle" x="517" y="-99.8" font-family="Times,serif" font-size="14.00" fill="#000000">HttpClientModule</text>
</g>
<!-- HttpClientModule&#45;&gt;CoreModule -->
<g id="edge7" class="edge">
<title>HttpClientModule&#45;&gt;CoreModule</title>
<path fill="none" stroke="#000000" d="M549.9588,-122.2396C549.9588,-137.5706 549.9588,-157 549.9588,-157 549.9588,-157 690.4534,-157 690.4534,-157"/>
<polygon fill="#000000" stroke="#000000" points="690.4534,-160.5001 700.4534,-157 690.4533,-153.5001 690.4534,-160.5001"/>
</g>
<!-- FormsModule -->
<g id="node9" class="node">
<title>FormsModule</title>
<polygon fill="#8dd3c7" stroke="#000000" points="439.8288,-122 436.8288,-126 415.8288,-126 412.8288,-122 344.1712,-122 344.1712,-86 439.8288,-86 439.8288,-122"/>
<text text-anchor="middle" x="392" y="-99.8" font-family="Times,serif" font-size="14.00" fill="#000000">FormsModule</text>
</g>
<!-- FormsModule&#45;&gt;CoreModule -->
<g id="edge8" class="edge">
<title>FormsModule&#45;&gt;CoreModule</title>
<path fill="none" stroke="#000000" d="M423.125,-122.0336C423.125,-139.0597 423.125,-162 423.125,-162 423.125,-162 690.7254,-162 690.7254,-162"/>
<polygon fill="#000000" stroke="#000000" points="690.7254,-165.5001 700.7254,-162 690.7253,-158.5001 690.7254,-165.5001"/>
</g>
<!-- HttpModule -->
<g id="node10" class="node">
<title>HttpModule</title>
<polygon fill="#8dd3c7" stroke="#000000" points="326.4387,-122 323.4387,-126 302.4387,-126 299.4387,-122 241.5613,-122 241.5613,-86 326.4387,-86 326.4387,-122"/>
<text text-anchor="middle" x="284" y="-99.8" font-family="Times,serif" font-size="14.00" fill="#000000">HttpModule</text>
</g>
<!-- HttpModule&#45;&gt;CoreModule -->
<g id="edge9" class="edge">
<title>HttpModule&#45;&gt;CoreModule</title>
<path fill="none" stroke="#000000" d="M284,-122.2222C284,-140.8285 284,-167 284,-167 284,-167 690.7243,-167 690.7243,-167"/>
<polygon fill="#000000" stroke="#000000" points="690.7244,-170.5001 700.7243,-167 690.7243,-163.5001 690.7244,-170.5001"/>
</g>
<!-- AuthenticationService -->
<g id="node16" class="node">
<title>AuthenticationService</title>
<ellipse fill="#fdb462" stroke="#000000" cx="121" cy="-104" rx="97.2683" ry="18"/>
<text text-anchor="middle" x="121" y="-99.8" font-family="Times,serif" font-size="14.00" fill="#000000">AuthenticationService</text>
</g>
<!-- AuthenticationService&#45;&gt;CoreModule -->
<g id="edge15" class="edge">
<title>AuthenticationService&#45;&gt;CoreModule</title>
<path fill="none" stroke="#000000" d="M121,-122.2228C121,-142.3652 121,-172 121,-172 121,-172 690.6865,-172 690.6865,-172"/>
<polygon fill="#000000" stroke="#000000" points="690.6865,-175.5001 700.6865,-172 690.6864,-168.5001 690.6865,-175.5001"/>
</g>
</g>
</svg>
