<?xml version="1.0" encoding="UTF-8" standalone="no"?>
<!DOCTYPE svg PUBLIC "-//W3C//DTD SVG 1.1//EN"
 "http://www.w3.org/Graphics/SVG/1.1/DTD/svg11.dtd">
<!-- Generated by graphviz version 2.40.1 (20161225.0304)
 -->
<!-- Title: dependencies Pages: 1 -->
<svg width="504pt" height="211pt"
 viewBox="0.00 0.00 504.00 211.00" xmlns="http://www.w3.org/2000/svg" xmlns:xlink="http://www.w3.org/1999/xlink">
<g id="graph0" class="graph" transform="scale(1 1) rotate(0) translate(4 207)">
<title>dependencies</title>
<polygon fill="#ffffff" stroke="transparent" points="-4,4 -4,-207 500,-207 500,4 -4,4"/>
<text text-anchor="start" x="227.0091" y="-42.4" font-family="sans-serif" font-weight="bold" font-size="14.00" fill="#000000">Legend</text>
<polygon fill="#ffffb3" stroke="transparent" points="14,-10 14,-30 34,-30 34,-10 14,-10"/>
<text text-anchor="start" x="37.629" y="-15.4" font-family="sans-serif" font-size="14.00" fill="#000000"> &#160;Declarations</text>
<polygon fill="#8dd3c7" stroke="transparent" points="127,-10 127,-30 147,-30 147,-10 127,-10"/>
<text text-anchor="start" x="150.7251" y="-15.4" font-family="sans-serif" font-size="14.00" fill="#000000"> &#160;Module</text>
<polygon fill="#80b1d3" stroke="transparent" points="213,-10 213,-30 233,-30 233,-10 213,-10"/>
<text text-anchor="start" x="236.7812" y="-15.4" font-family="sans-serif" font-size="14.00" fill="#000000"> &#160;Bootstrap</text>
<polygon fill="#fdb462" stroke="transparent" points="310,-10 310,-30 330,-30 330,-10 310,-10"/>
<text text-anchor="start" x="333.6732" y="-15.4" font-family="sans-serif" font-size="14.00" fill="#000000"> &#160;Providers</text>
<polygon fill="#fb8072" stroke="transparent" points="406,-10 406,-30 426,-30 426,-10 406,-10"/>
<text text-anchor="start" x="429.7258" y="-15.4" font-family="sans-serif" font-size="14.00" fill="#000000"> &#160;Exports</text>
<g id="clust1" class="cluster">
<title>cluster_ProduitsModule</title>
<polygon fill="none" stroke="#000000" stroke-dasharray="1,5" points="100,-70 100,-195 396,-195 396,-70 100,-70"/>
</g>
<g id="clust2" class="cluster">
<title>cluster_ProduitsModule_declarations</title>
<polygon fill="none" stroke="#000000" points="244,-78 244,-130 388,-130 388,-78 244,-78"/>
</g>
<g id="clust4" class="cluster">
<title>cluster_ProduitsModule_imports</title>
<polygon fill="none" stroke="#000000" points="108,-78 108,-130 236,-130 236,-78 108,-78"/>
</g>
<!-- ProduitsComponent -->
<g id="node1" class="node">
<title>ProduitsComponent</title>
<polygon fill="#ffffb3" stroke="#000000" points="380.0014,-122 251.9986,-122 251.9986,-86 380.0014,-86 380.0014,-122"/>
<text text-anchor="middle" x="316" y="-99.8" font-family="Times,serif" font-size="14.00" fill="#000000">ProduitsComponent</text>
</g>
<!-- ProduitsModule -->
<g id="node2" class="node">
<title>ProduitsModule</title>
<polygon fill="#8dd3c7" stroke="#000000" points="297.219,-187 294.219,-191 273.219,-191 270.219,-187 190.781,-187 190.781,-151 297.219,-151 297.219,-187"/>
<text text-anchor="middle" x="244" y="-164.8" font-family="Times,serif" font-size="14.00" fill="#000000">ProduitsModule</text>
</g>
<!-- ProduitsComponent&#45;&gt;ProduitsModule -->
<g id="edge1" class="edge">
<title>ProduitsComponent&#45;&gt;ProduitsModule</title>
<path fill="none" stroke="#000000" d="M274.5544,-122.1061C274.5544,-122.1061 274.5544,-140.991 274.5544,-140.991"/>
<polygon fill="#000000" stroke="#000000" points="271.0544,-140.9909 274.5544,-150.991 278.0544,-140.991 271.0544,-140.9909"/>
</g>
<!-- CommonModule -->
<g id="node3" class="node">
<title>CommonModule</title>
<polygon fill="#8dd3c7" stroke="#000000" points="227.6681,-122 224.6681,-126 203.6681,-126 200.6681,-122 116.3319,-122 116.3319,-86 227.6681,-86 227.6681,-122"/>
<text text-anchor="middle" x="172" y="-99.8" font-family="Times,serif" font-size="14.00" fill="#000000">CommonModule</text>
</g>
<!-- CommonModule&#45;&gt;ProduitsModule -->
<g id="edge2" class="edge">
<title>CommonModule&#45;&gt;ProduitsModule</title>
<path fill="none" stroke="#000000" d="M209.3622,-122.1061C209.3622,-122.1061 209.3622,-140.991 209.3622,-140.991"/>
<polygon fill="#000000" stroke="#000000" points="205.8623,-140.9909 209.3622,-150.991 212.8623,-140.991 205.8623,-140.9909"/>
</g>
</g>
</svg>
