<?xml version="1.0" encoding="UTF-8" standalone="no"?>
<!DOCTYPE svg PUBLIC "-//W3C//DTD SVG 1.1//EN"
 "http://www.w3.org/Graphics/SVG/1.1/DTD/svg11.dtd">
<!-- Generated by graphviz version 2.40.1 (20161225.0304)
 -->
<!-- Title: dependencies Pages: 1 -->
<svg width="504pt" height="284pt"
 viewBox="0.00 0.00 504.00 284.00" xmlns="http://www.w3.org/2000/svg" xmlns:xlink="http://www.w3.org/1999/xlink">
<g id="graph0" class="graph" transform="scale(1 1) rotate(0) translate(4 280)">
<title>dependencies</title>
<polygon fill="#ffffff" stroke="transparent" points="-4,4 -4,-280 500,-280 500,4 -4,4"/>
<text text-anchor="start" x="227.0091" y="-42.4" font-family="sans-serif" font-weight="bold" font-size="14.00" fill="#000000">Legend</text>
<polygon fill="#ffffb3" stroke="transparent" points="14,-10 14,-30 34,-30 34,-10 14,-10"/>
<text text-anchor="start" x="37.629" y="-15.4" font-family="sans-serif" font-size="14.00" fill="#000000"> &#160;Declarations</text>
<polygon fill="#8dd3c7" stroke="transparent" points="127,-10 127,-30 147,-30 147,-10 127,-10"/>
<text text-anchor="start" x="150.7251" y="-15.4" font-family="sans-serif" font-size="14.00" fill="#000000"> &#160;Module</text>
<polygon fill="#80b1d3" stroke="transparent" points="213,-10 213,-30 233,-30 233,-10 213,-10"/>
<text text-anchor="start" x="236.7812" y="-15.4" font-family="sans-serif" font-size="14.00" fill="#000000"> &#160;Bootstrap</text>
<polygon fill="#fdb462" stroke="transparent" points="310,-10 310,-30 330,-30 330,-10 310,-10"/>
<text text-anchor="start" x="333.6732" y="-15.4" font-family="sans-serif" font-size="14.00" fill="#000000"> &#160;Providers</text>
<polygon fill="#fb8072" stroke="transparent" points="406,-10 406,-30 426,-30 426,-10 406,-10"/>
<text text-anchor="start" x="429.7258" y="-15.4" font-family="sans-serif" font-size="14.00" fill="#000000"> &#160;Exports</text>
<g id="clust1" class="cluster">
<title>cluster_CoreRootingModule</title>
<polygon fill="none" stroke="#000000" stroke-dasharray="1,5" points="78,-70 78,-268 418,-268 418,-70 78,-70"/>
</g>
<g id="clust3" class="cluster">
<title>cluster_CoreRootingModule_imports</title>
<polygon fill="none" stroke="#000000" points="86,-78 86,-130 410,-130 410,-78 86,-78"/>
</g>
<g id="clust4" class="cluster">
<title>cluster_CoreRootingModule_exports</title>
<polygon fill="none" stroke="#000000" points="204,-208 204,-260 322,-260 322,-208 204,-208"/>
</g>
<!-- CommonModule -->
<g id="node1" class="node">
<title>CommonModule</title>
<polygon fill="#8dd3c7" stroke="#000000" points="401.6681,-122 398.6681,-126 377.6681,-126 374.6681,-122 290.3319,-122 290.3319,-86 401.6681,-86 401.6681,-122"/>
<text text-anchor="middle" x="346" y="-99.8" font-family="Times,serif" font-size="14.00" fill="#000000">CommonModule</text>
</g>
<!-- CoreRootingModule -->
<g id="node3" class="node">
<title>CoreRootingModule</title>
<polygon fill="#8dd3c7" stroke="#000000" points="328.8795,-187 325.8795,-191 304.8795,-191 301.8795,-187 197.1205,-187 197.1205,-151 328.8795,-151 328.8795,-187"/>
<text text-anchor="middle" x="263" y="-164.8" font-family="Times,serif" font-size="14.00" fill="#000000">CoreRootingModule</text>
</g>
<!-- CommonModule&#45;&gt;CoreRootingModule -->
<g id="edge1" class="edge">
<title>CommonModule&#45;&gt;CoreRootingModule</title>
<path fill="none" stroke="#000000" d="M309.553,-122.1061C309.553,-122.1061 309.553,-140.991 309.553,-140.991"/>
<polygon fill="#000000" stroke="#000000" points="306.053,-140.9909 309.553,-150.991 313.053,-140.991 306.053,-140.9909"/>
</g>
<!-- RouterModule.forRoot(args) -->
<g id="node2" class="node">
<title>RouterModule.forRoot(args)</title>
<polygon fill="#8dd3c7" stroke="#000000" points="271.8419,-122 268.8419,-126 247.8419,-126 244.8419,-122 94.1581,-122 94.1581,-86 271.8419,-86 271.8419,-122"/>
<text text-anchor="middle" x="183" y="-99.8" font-family="Times,serif" font-size="14.00" fill="#000000">RouterModule.forRoot(args)</text>
</g>
<!-- RouterModule.forRoot(args)&#45;&gt;CoreRootingModule -->
<g id="edge2" class="edge">
<title>RouterModule.forRoot(args)&#45;&gt;CoreRootingModule</title>
<path fill="none" stroke="#000000" d="M234.3656,-122.1061C234.3656,-122.1061 234.3656,-140.991 234.3656,-140.991"/>
<polygon fill="#000000" stroke="#000000" points="230.8656,-140.9909 234.3656,-150.991 237.8656,-140.991 230.8656,-140.9909"/>
</g>
<!-- RouterModule  -->
<g id="node4" class="node">
<title>RouterModule </title>
<polygon fill="#fb8072" stroke="#000000" points="313.6523,-252 212.3477,-252 212.3477,-216 313.6523,-216 313.6523,-252"/>
<text text-anchor="middle" x="263" y="-229.8" font-family="Times,serif" font-size="14.00" fill="#000000">RouterModule </text>
</g>
<!-- CoreRootingModule&#45;&gt;RouterModule  -->
<g id="edge3" class="edge">
<title>CoreRootingModule&#45;&gt;RouterModule </title>
<path fill="none" stroke="#000000" stroke-dasharray="5,2" d="M263,-187.1061C263,-187.1061 263,-205.991 263,-205.991"/>
<polygon fill="#000000" stroke="#000000" points="259.5001,-205.9909 263,-215.991 266.5001,-205.991 259.5001,-205.9909"/>
</g>
</g>
</svg>
