<?xml version="1.0" encoding="UTF-8" standalone="no"?>
<!DOCTYPE svg PUBLIC "-//W3C//DTD SVG 1.1//EN"
 "http://www.w3.org/Graphics/SVG/1.1/DTD/svg11.dtd">
<!-- Generated by graphviz version 2.40.1 (20161225.0304)
 -->
<!-- Title: dependencies Pages: 1 -->
<svg width="504pt" height="284pt"
 viewBox="0.00 0.00 504.00 284.00" xmlns="http://www.w3.org/2000/svg" xmlns:xlink="http://www.w3.org/1999/xlink">
<g id="graph0" class="graph" transform="scale(1 1) rotate(0) translate(4 280)">
<title>dependencies</title>
<polygon fill="#ffffff" stroke="transparent" points="-4,4 -4,-280 500,-280 500,4 -4,4"/>
<text text-anchor="start" x="227.0091" y="-42.4" font-family="sans-serif" font-weight="bold" font-size="14.00" fill="#000000">Legend</text>
<polygon fill="#ffffb3" stroke="transparent" points="14,-10 14,-30 34,-30 34,-10 14,-10"/>
<text text-anchor="start" x="37.629" y="-15.4" font-family="sans-serif" font-size="14.00" fill="#000000"> &#160;Declarations</text>
<polygon fill="#8dd3c7" stroke="transparent" points="127,-10 127,-30 147,-30 147,-10 127,-10"/>
<text text-anchor="start" x="150.7251" y="-15.4" font-family="sans-serif" font-size="14.00" fill="#000000"> &#160;Module</text>
<polygon fill="#80b1d3" stroke="transparent" points="213,-10 213,-30 233,-30 233,-10 213,-10"/>
<text text-anchor="start" x="236.7812" y="-15.4" font-family="sans-serif" font-size="14.00" fill="#000000"> &#160;Bootstrap</text>
<polygon fill="#fdb462" stroke="transparent" points="310,-10 310,-30 330,-30 330,-10 310,-10"/>
<text text-anchor="start" x="333.6732" y="-15.4" font-family="sans-serif" font-size="14.00" fill="#000000"> &#160;Providers</text>
<polygon fill="#fb8072" stroke="transparent" points="406,-10 406,-30 426,-30 426,-10 406,-10"/>
<text text-anchor="start" x="429.7258" y="-15.4" font-family="sans-serif" font-size="14.00" fill="#000000"> &#160;Exports</text>
<g id="clust1" class="cluster">
<title>cluster_ComptabiliteModule</title>
<polygon fill="none" stroke="#000000" stroke-dasharray="1,5" points="54,-70 54,-268 442,-268 442,-70 54,-70"/>
</g>
<g id="clust2" class="cluster">
<title>cluster_ComptabiliteModule_declarations</title>
<polygon fill="none" stroke="#000000" points="264,-78 264,-130 434,-130 434,-78 264,-78"/>
</g>
<g id="clust4" class="cluster">
<title>cluster_ComptabiliteModule_imports</title>
<polygon fill="none" stroke="#000000" points="62,-78 62,-130 256,-130 256,-78 62,-78"/>
</g>
<g id="clust5" class="cluster">
<title>cluster_ComptabiliteModule_exports</title>
<polygon fill="none" stroke="#000000" points="81,-208 81,-260 375,-260 375,-208 81,-208"/>
</g>
<!-- ComptabiliteComponent -->
<g id="node1" class="node">
<title>ComptabiliteComponent</title>
<polygon fill="#ffffb3" stroke="#000000" points="426.4424,-122 271.5576,-122 271.5576,-86 426.4424,-86 426.4424,-122"/>
<text text-anchor="middle" x="349" y="-99.8" font-family="Times,serif" font-size="14.00" fill="#000000">ComptabiliteComponent</text>
</g>
<!-- ComptabiliteModule -->
<g id="node2" class="node">
<title>ComptabiliteModule</title>
<polygon fill="#8dd3c7" stroke="#000000" points="289.1596,-187 286.1596,-191 265.1596,-191 262.1596,-187 156.8404,-187 156.8404,-151 289.1596,-151 289.1596,-187"/>
<text text-anchor="middle" x="223" y="-164.8" font-family="Times,serif" font-size="14.00" fill="#000000">ComptabiliteModule</text>
</g>
<!-- ComptabiliteComponent&#45;&gt;ComptabiliteModule -->
<g id="edge1" class="edge">
<title>ComptabiliteComponent&#45;&gt;ComptabiliteModule</title>
<path fill="none" stroke="#000000" d="M280.5544,-122.1061C280.5544,-122.1061 280.5544,-140.991 280.5544,-140.991"/>
<polygon fill="#000000" stroke="#000000" points="277.0544,-140.9909 280.5544,-150.991 284.0544,-140.991 277.0544,-140.9909"/>
</g>
<!-- ComptabiliteComponent  -->
<g id="node4" class="node">
<title>ComptabiliteComponent </title>
<polygon fill="#fb8072" stroke="#000000" points="366.9418,-252 209.0582,-252 209.0582,-216 366.9418,-216 366.9418,-252"/>
<text text-anchor="middle" x="288" y="-229.8" font-family="Times,serif" font-size="14.00" fill="#000000">ComptabiliteComponent </text>
</g>
<!-- ComptabiliteModule&#45;&gt;ComptabiliteComponent  -->
<g id="edge3" class="edge">
<title>ComptabiliteModule&#45;&gt;ComptabiliteComponent </title>
<path fill="none" stroke="#000000" stroke-dasharray="5,2" d="M249.1794,-187.1061C249.1794,-187.1061 249.1794,-205.991 249.1794,-205.991"/>
<polygon fill="#000000" stroke="#000000" points="245.6794,-205.9909 249.1794,-215.991 252.6794,-205.991 245.6794,-205.9909"/>
</g>
<!-- RouterModule  -->
<g id="node5" class="node">
<title>RouterModule </title>
<polygon fill="#fb8072" stroke="#000000" points="190.6523,-252 89.3477,-252 89.3477,-216 190.6523,-216 190.6523,-252"/>
<text text-anchor="middle" x="140" y="-229.8" font-family="Times,serif" font-size="14.00" fill="#000000">RouterModule </text>
</g>
<!-- ComptabiliteModule&#45;&gt;RouterModule  -->
<g id="edge4" class="edge">
<title>ComptabiliteModule&#45;&gt;RouterModule </title>
<path fill="none" stroke="#000000" stroke-dasharray="5,2" d="M173.6232,-187.1061C173.6232,-187.1061 173.6232,-205.991 173.6232,-205.991"/>
<polygon fill="#000000" stroke="#000000" points="170.1233,-205.9909 173.6232,-215.991 177.1233,-205.991 170.1233,-205.9909"/>
</g>
<!-- ComptabiliteRoutingModule -->
<g id="node3" class="node">
<title>ComptabiliteRoutingModule</title>
<polygon fill="#8dd3c7" stroke="#000000" points="247.7771,-122 244.7771,-126 223.7771,-126 220.7771,-122 70.2229,-122 70.2229,-86 247.7771,-86 247.7771,-122"/>
<text text-anchor="middle" x="159" y="-99.8" font-family="Times,serif" font-size="14.00" fill="#000000">ComptabiliteRoutingModule</text>
</g>
<!-- ComptabiliteRoutingModule&#45;&gt;ComptabiliteModule -->
<g id="edge2" class="edge">
<title>ComptabiliteRoutingModule&#45;&gt;ComptabiliteModule</title>
<path fill="none" stroke="#000000" d="M202.2795,-122.1061C202.2795,-122.1061 202.2795,-140.991 202.2795,-140.991"/>
<polygon fill="#000000" stroke="#000000" points="198.7795,-140.9909 202.2795,-150.991 205.7795,-140.991 198.7795,-140.9909"/>
</g>
</g>
</svg>
