<?xml version="1.0" encoding="UTF-8" standalone="no"?>
<!DOCTYPE svg PUBLIC "-//W3C//DTD SVG 1.1//EN"
 "http://www.w3.org/Graphics/SVG/1.1/DTD/svg11.dtd">
<!-- Generated by graphviz version 2.40.1 (20161225.0304)
 -->
<!-- Title: dependencies Pages: 1 -->
<svg width="812pt" height="284pt"
 viewBox="0.00 0.00 812.00 284.00" xmlns="http://www.w3.org/2000/svg" xmlns:xlink="http://www.w3.org/1999/xlink">
<g id="graph0" class="graph" transform="scale(1 1) rotate(0) translate(4 280)">
<title>dependencies</title>
<polygon fill="#ffffff" stroke="transparent" points="-4,4 -4,-280 808,-280 808,4 -4,4"/>
<text text-anchor="start" x="381.0091" y="-42.4" font-family="sans-serif" font-weight="bold" font-size="14.00" fill="#000000">Legend</text>
<polygon fill="#ffffb3" stroke="transparent" points="168,-10 168,-30 188,-30 188,-10 168,-10"/>
<text text-anchor="start" x="191.629" y="-15.4" font-family="sans-serif" font-size="14.00" fill="#000000"> &#160;Declarations</text>
<polygon fill="#8dd3c7" stroke="transparent" points="281,-10 281,-30 301,-30 301,-10 281,-10"/>
<text text-anchor="start" x="304.7251" y="-15.4" font-family="sans-serif" font-size="14.00" fill="#000000"> &#160;Module</text>
<polygon fill="#80b1d3" stroke="transparent" points="367,-10 367,-30 387,-30 387,-10 367,-10"/>
<text text-anchor="start" x="390.7812" y="-15.4" font-family="sans-serif" font-size="14.00" fill="#000000"> &#160;Bootstrap</text>
<polygon fill="#fdb462" stroke="transparent" points="464,-10 464,-30 484,-30 484,-10 464,-10"/>
<text text-anchor="start" x="487.6732" y="-15.4" font-family="sans-serif" font-size="14.00" fill="#000000"> &#160;Providers</text>
<polygon fill="#fb8072" stroke="transparent" points="560,-10 560,-30 580,-30 580,-10 560,-10"/>
<text text-anchor="start" x="583.7258" y="-15.4" font-family="sans-serif" font-size="14.00" fill="#000000"> &#160;Exports</text>
<g id="clust1" class="cluster">
<title>cluster_CommandesModule</title>
<polygon fill="none" stroke="#000000" stroke-dasharray="1,5" points="8,-70 8,-268 796,-268 796,-70 8,-70"/>
</g>
<g id="clust2" class="cluster">
<title>cluster_CommandesModule_declarations</title>
<polygon fill="none" stroke="#000000" points="620,-78 620,-130 788,-130 788,-78 620,-78"/>
</g>
<g id="clust4" class="cluster">
<title>cluster_CommandesModule_imports</title>
<polygon fill="none" stroke="#000000" points="16,-78 16,-130 612,-130 612,-78 16,-78"/>
</g>
<g id="clust5" class="cluster">
<title>cluster_CommandesModule_exports</title>
<polygon fill="none" stroke="#000000" points="255,-208 255,-260 545,-260 545,-208 255,-208"/>
</g>
<!-- CommandesComponent -->
<g id="node1" class="node">
<title>CommandesComponent</title>
<polygon fill="#ffffb3" stroke="#000000" points="779.8243,-122 628.1757,-122 628.1757,-86 779.8243,-86 779.8243,-122"/>
<text text-anchor="middle" x="704" y="-99.8" font-family="Times,serif" font-size="14.00" fill="#000000">CommandesComponent</text>
</g>
<!-- CommandesModule -->
<g id="node2" class="node">
<title>CommandesModule</title>
<polygon fill="#8dd3c7" stroke="#000000" points="451.5422,-187 448.5422,-191 427.5422,-191 424.5422,-187 322.4578,-187 322.4578,-151 451.5422,-151 451.5422,-187"/>
<text text-anchor="middle" x="387" y="-164.8" font-family="Times,serif" font-size="14.00" fill="#000000">CommandesModule</text>
</g>
<!-- CommandesComponent&#45;&gt;CommandesModule -->
<g id="edge1" class="edge">
<title>CommandesComponent&#45;&gt;CommandesModule</title>
<path fill="none" stroke="#000000" d="M704,-122.2843C704,-143.3211 704,-175 704,-175 704,-175 461.9146,-175 461.9146,-175"/>
<polygon fill="#000000" stroke="#000000" points="461.9147,-171.5001 451.9146,-175 461.9146,-178.5001 461.9147,-171.5001"/>
</g>
<!-- CommandesComponent  -->
<g id="node7" class="node">
<title>CommandesComponent </title>
<polygon fill="#fb8072" stroke="#000000" points="537.3241,-252 382.6759,-252 382.6759,-216 537.3241,-216 537.3241,-252"/>
<text text-anchor="middle" x="460" y="-229.8" font-family="Times,serif" font-size="14.00" fill="#000000">CommandesComponent </text>
</g>
<!-- CommandesModule&#45;&gt;CommandesComponent  -->
<g id="edge6" class="edge">
<title>CommandesModule&#45;&gt;CommandesComponent </title>
<path fill="none" stroke="#000000" stroke-dasharray="5,2" d="M417.1794,-187.1061C417.1794,-187.1061 417.1794,-205.991 417.1794,-205.991"/>
<polygon fill="#000000" stroke="#000000" points="413.6794,-205.9909 417.1794,-215.991 420.6794,-205.991 413.6794,-205.9909"/>
</g>
<!-- RouterModule  -->
<g id="node8" class="node">
<title>RouterModule </title>
<polygon fill="#fb8072" stroke="#000000" points="364.6523,-252 263.3477,-252 263.3477,-216 364.6523,-216 364.6523,-252"/>
<text text-anchor="middle" x="314" y="-229.8" font-family="Times,serif" font-size="14.00" fill="#000000">RouterModule </text>
</g>
<!-- CommandesModule&#45;&gt;RouterModule  -->
<g id="edge7" class="edge">
<title>CommandesModule&#45;&gt;RouterModule </title>
<path fill="none" stroke="#000000" stroke-dasharray="5,2" d="M343.4027,-187.1061C343.4027,-187.1061 343.4027,-205.991 343.4027,-205.991"/>
<polygon fill="#000000" stroke="#000000" points="339.9028,-205.9909 343.4027,-215.991 346.9028,-205.991 339.9028,-205.9909"/>
</g>
<!-- CommonModule -->
<g id="node3" class="node">
<title>CommonModule</title>
<polygon fill="#8dd3c7" stroke="#000000" points="603.6681,-122 600.6681,-126 579.6681,-126 576.6681,-122 492.3319,-122 492.3319,-86 603.6681,-86 603.6681,-122"/>
<text text-anchor="middle" x="548" y="-99.8" font-family="Times,serif" font-size="14.00" fill="#000000">CommonModule</text>
</g>
<!-- CommonModule&#45;&gt;CommandesModule -->
<g id="edge2" class="edge">
<title>CommonModule&#45;&gt;CommandesModule</title>
<path fill="none" stroke="#000000" d="M514.7891,-122.0225C514.7891,-139.3734 514.7891,-163 514.7891,-163 514.7891,-163 461.6433,-163 461.6433,-163"/>
<polygon fill="#000000" stroke="#000000" points="461.6433,-159.5001 451.6433,-163 461.6433,-166.5001 461.6433,-159.5001"/>
</g>
<!-- CommandesRoutingModule -->
<g id="node4" class="node">
<title>CommandesRoutingModule</title>
<polygon fill="#8dd3c7" stroke="#000000" points="474.1595,-122 471.1595,-126 450.1595,-126 447.1595,-122 299.8405,-122 299.8405,-86 474.1595,-86 474.1595,-122"/>
<text text-anchor="middle" x="387" y="-99.8" font-family="Times,serif" font-size="14.00" fill="#000000">CommandesRoutingModule</text>
</g>
<!-- CommandesRoutingModule&#45;&gt;CommandesModule -->
<g id="edge3" class="edge">
<title>CommandesRoutingModule&#45;&gt;CommandesModule</title>
<path fill="none" stroke="#000000" d="M387,-122.1061C387,-122.1061 387,-140.991 387,-140.991"/>
<polygon fill="#000000" stroke="#000000" points="383.5001,-140.9909 387,-150.991 390.5001,-140.991 383.5001,-140.9909"/>
</g>
<!-- ReactiveFormsModule -->
<g id="node5" class="node">
<title>ReactiveFormsModule</title>
<polygon fill="#8dd3c7" stroke="#000000" points="282.3047,-122 279.3047,-126 258.3047,-126 255.3047,-122 137.6953,-122 137.6953,-86 282.3047,-86 282.3047,-122"/>
<text text-anchor="middle" x="210" y="-99.8" font-family="Times,serif" font-size="14.00" fill="#000000">ReactiveFormsModule</text>
</g>
<!-- ReactiveFormsModule&#45;&gt;CommandesModule -->
<g id="edge4" class="edge">
<title>ReactiveFormsModule&#45;&gt;CommandesModule</title>
<path fill="none" stroke="#000000" d="M272.7881,-122.0225C272.7881,-139.3734 272.7881,-163 272.7881,-163 272.7881,-163 312.2188,-163 312.2188,-163"/>
<polygon fill="#000000" stroke="#000000" points="312.2188,-166.5001 322.2188,-163 312.2188,-159.5001 312.2188,-166.5001"/>
</g>
<!-- FormsModule -->
<g id="node6" class="node">
<title>FormsModule</title>
<polygon fill="#8dd3c7" stroke="#000000" points="119.8288,-122 116.8288,-126 95.8288,-126 92.8288,-122 24.1712,-122 24.1712,-86 119.8288,-86 119.8288,-122"/>
<text text-anchor="middle" x="72" y="-99.8" font-family="Times,serif" font-size="14.00" fill="#000000">FormsModule</text>
</g>
<!-- FormsModule&#45;&gt;CommandesModule -->
<g id="edge5" class="edge">
<title>FormsModule&#45;&gt;CommandesModule</title>
<path fill="none" stroke="#000000" d="M72,-122.2843C72,-143.3211 72,-175 72,-175 72,-175 312.1137,-175 312.1137,-175"/>
<polygon fill="#000000" stroke="#000000" points="312.1138,-178.5001 322.1137,-175 312.1137,-171.5001 312.1138,-178.5001"/>
</g>
</g>
</svg>
