<?xml version="1.0" encoding="UTF-8" standalone="no"?>
<!DOCTYPE svg PUBLIC "-//W3C//DTD SVG 1.1//EN"
 "http://www.w3.org/Graphics/SVG/1.1/DTD/svg11.dtd">
<!-- Generated by graphviz version 2.40.1 (20161225.0304)
 -->
<!-- Title: dependencies Pages: 1 -->
<svg width="1471pt" height="284pt"
 viewBox="0.00 0.00 1471.00 284.00" xmlns="http://www.w3.org/2000/svg" xmlns:xlink="http://www.w3.org/1999/xlink">
<g id="graph0" class="graph" transform="scale(1 1) rotate(0) translate(4 280)">
<title>dependencies</title>
<polygon fill="#ffffff" stroke="transparent" points="-4,4 -4,-280 1467,-280 1467,4 -4,4"/>
<text text-anchor="start" x="710.5091" y="-42.4" font-family="sans-serif" font-weight="bold" font-size="14.00" fill="#000000">Legend</text>
<polygon fill="#ffffb3" stroke="transparent" points="497.5,-10 497.5,-30 517.5,-30 517.5,-10 497.5,-10"/>
<text text-anchor="start" x="521.129" y="-15.4" font-family="sans-serif" font-size="14.00" fill="#000000"> &#160;Declarations</text>
<polygon fill="#8dd3c7" stroke="transparent" points="610.5,-10 610.5,-30 630.5,-30 630.5,-10 610.5,-10"/>
<text text-anchor="start" x="634.2251" y="-15.4" font-family="sans-serif" font-size="14.00" fill="#000000"> &#160;Module</text>
<polygon fill="#80b1d3" stroke="transparent" points="696.5,-10 696.5,-30 716.5,-30 716.5,-10 696.5,-10"/>
<text text-anchor="start" x="720.2812" y="-15.4" font-family="sans-serif" font-size="14.00" fill="#000000"> &#160;Bootstrap</text>
<polygon fill="#fdb462" stroke="transparent" points="793.5,-10 793.5,-30 813.5,-30 813.5,-10 793.5,-10"/>
<text text-anchor="start" x="817.1732" y="-15.4" font-family="sans-serif" font-size="14.00" fill="#000000"> &#160;Providers</text>
<polygon fill="#fb8072" stroke="transparent" points="889.5,-10 889.5,-30 909.5,-30 909.5,-10 889.5,-10"/>
<text text-anchor="start" x="913.2258" y="-15.4" font-family="sans-serif" font-size="14.00" fill="#000000"> &#160;Exports</text>
<g id="clust1" class="cluster">
<title>cluster_AppModule</title>
<polygon fill="none" stroke="#000000" stroke-dasharray="1,5" points="8,-70 8,-268 1455,-268 1455,-70 8,-70"/>
</g>
<g id="clust2" class="cluster">
<title>cluster_AppModule_declarations</title>
<polygon fill="none" stroke="#000000" points="251,-78 251,-130 1447,-130 1447,-78 251,-78"/>
</g>
<g id="clust12" class="cluster">
<title>cluster_AppModule_imports</title>
<polygon fill="none" stroke="#000000" points="16,-78 16,-130 243,-130 243,-78 16,-78"/>
</g>
<g id="clust14" class="cluster">
<title>cluster_AppModule_bootstrap</title>
<polygon fill="none" stroke="#000000" points="656,-208 656,-260 780,-260 780,-208 656,-208"/>
</g>
<!-- AppComponent -->
<g id="node1" class="node">
<title>AppComponent</title>
<polygon fill="#ffffb3" stroke="#000000" points="1438.9399,-122 1333.0601,-122 1333.0601,-86 1438.9399,-86 1438.9399,-122"/>
<text text-anchor="middle" x="1386" y="-99.8" font-family="Times,serif" font-size="14.00" fill="#000000">AppComponent</text>
</g>
<!-- AppModule -->
<g id="node10" class="node">
<title>AppModule</title>
<polygon fill="#8dd3c7" stroke="#000000" points="759.6571,-187 756.6571,-191 735.6571,-191 732.6571,-187 676.3429,-187 676.3429,-151 759.6571,-151 759.6571,-187"/>
<text text-anchor="middle" x="718" y="-164.8" font-family="Times,serif" font-size="14.00" fill="#000000">AppModule</text>
</g>
<!-- AppComponent&#45;&gt;AppModule -->
<g id="edge1" class="edge">
<title>AppComponent&#45;&gt;AppModule</title>
<path fill="none" stroke="#000000" d="M1386,-122.2479C1386,-145.0179 1386,-181 1386,-181 1386,-181 769.7864,-181 769.7864,-181"/>
<polygon fill="#000000" stroke="#000000" points="769.7864,-177.5001 759.7864,-181 769.7864,-184.5001 769.7864,-177.5001"/>
</g>
<!-- PlanningComponent -->
<g id="node2" class="node">
<title>PlanningComponent</title>
<polygon fill="#ffffb3" stroke="#000000" points="1315.6108,-122 1184.3892,-122 1184.3892,-86 1315.6108,-86 1315.6108,-122"/>
<text text-anchor="middle" x="1250" y="-99.8" font-family="Times,serif" font-size="14.00" fill="#000000">PlanningComponent</text>
</g>
<!-- PlanningComponent&#45;&gt;AppModule -->
<g id="edge2" class="edge">
<title>PlanningComponent&#45;&gt;AppModule</title>
<path fill="none" stroke="#000000" d="M1250,-122.2843C1250,-143.3211 1250,-175 1250,-175 1250,-175 769.7451,-175 769.7451,-175"/>
<polygon fill="#000000" stroke="#000000" points="769.7452,-171.5001 759.7451,-175 769.7451,-178.5001 769.7452,-171.5001"/>
</g>
<!-- GestionstocksComponent -->
<g id="node3" class="node">
<title>GestionstocksComponent</title>
<polygon fill="#ffffb3" stroke="#000000" points="1166.8738,-122 1007.1262,-122 1007.1262,-86 1166.8738,-86 1166.8738,-122"/>
<text text-anchor="middle" x="1087" y="-99.8" font-family="Times,serif" font-size="14.00" fill="#000000">GestionstocksComponent</text>
</g>
<!-- GestionstocksComponent&#45;&gt;AppModule -->
<g id="edge3" class="edge">
<title>GestionstocksComponent&#45;&gt;AppModule</title>
<path fill="none" stroke="#000000" d="M1087,-122.1061C1087,-141.3391 1087,-169 1087,-169 1087,-169 769.9697,-169 769.9697,-169"/>
<polygon fill="#000000" stroke="#000000" points="769.9698,-165.5001 759.9697,-169 769.9697,-172.5001 769.9698,-165.5001"/>
</g>
<!-- OrderByPipe -->
<g id="node4" class="node">
<title>OrderByPipe</title>
<polygon fill="#ffffb3" stroke="#000000" points="988.8669,-122 899.1331,-122 899.1331,-86 988.8669,-86 988.8669,-122"/>
<text text-anchor="middle" x="944" y="-99.8" font-family="Times,serif" font-size="14.00" fill="#000000">OrderByPipe</text>
</g>
<!-- OrderByPipe&#45;&gt;AppModule -->
<g id="edge4" class="edge">
<title>OrderByPipe&#45;&gt;AppModule</title>
<path fill="none" stroke="#000000" d="M944,-122.0225C944,-139.3734 944,-163 944,-163 944,-163 769.7153,-163 769.7153,-163"/>
<polygon fill="#000000" stroke="#000000" points="769.7153,-159.5001 759.7153,-163 769.7152,-166.5001 769.7153,-159.5001"/>
</g>
<!-- UniquePipe -->
<g id="node5" class="node">
<title>UniquePipe</title>
<polygon fill="#ffffb3" stroke="#000000" points="881.0997,-122 798.9003,-122 798.9003,-86 881.0997,-86 881.0997,-122"/>
<text text-anchor="middle" x="840" y="-99.8" font-family="Times,serif" font-size="14.00" fill="#000000">UniquePipe</text>
</g>
<!-- UniquePipe&#45;&gt;AppModule -->
<g id="edge5" class="edge">
<title>UniquePipe&#45;&gt;AppModule</title>
<path fill="none" stroke="#000000" d="M840,-122.2396C840,-137.5706 840,-157 840,-157 840,-157 769.9855,-157 769.9855,-157"/>
<polygon fill="#000000" stroke="#000000" points="769.9855,-153.5001 759.9855,-157 769.9854,-160.5001 769.9855,-153.5001"/>
</g>
<!-- ProduitsSearchPipe -->
<g id="node6" class="node">
<title>ProduitsSearchPipe</title>
<polygon fill="#ffffb3" stroke="#000000" points="780.6443,-122 655.3557,-122 655.3557,-86 780.6443,-86 780.6443,-122"/>
<text text-anchor="middle" x="718" y="-99.8" font-family="Times,serif" font-size="14.00" fill="#000000">ProduitsSearchPipe</text>
</g>
<!-- ProduitsSearchPipe&#45;&gt;AppModule -->
<g id="edge6" class="edge">
<title>ProduitsSearchPipe&#45;&gt;AppModule</title>
<path fill="none" stroke="#000000" d="M718,-122.1061C718,-122.1061 718,-140.991 718,-140.991"/>
<polygon fill="#000000" stroke="#000000" points="714.5001,-140.9909 718,-150.991 721.5001,-140.991 714.5001,-140.9909"/>
</g>
<!-- SumPipe -->
<g id="node7" class="node">
<title>SumPipe</title>
<polygon fill="#ffffb3" stroke="#000000" points="637.0624,-122 570.9376,-122 570.9376,-86 637.0624,-86 637.0624,-122"/>
<text text-anchor="middle" x="604" y="-99.8" font-family="Times,serif" font-size="14.00" fill="#000000">SumPipe</text>
</g>
<!-- SumPipe&#45;&gt;AppModule -->
<g id="edge7" class="edge">
<title>SumPipe&#45;&gt;AppModule</title>
<path fill="none" stroke="#000000" d="M604,-122.2396C604,-137.5706 604,-157 604,-157 604,-157 666.1979,-157 666.1979,-157"/>
<polygon fill="#000000" stroke="#000000" points="666.198,-160.5001 676.1979,-157 666.1979,-153.5001 666.198,-160.5001"/>
</g>
<!-- HeaderComponent -->
<g id="node8" class="node">
<title>HeaderComponent</title>
<polygon fill="#ffffb3" stroke="#000000" points="552.7437,-122 431.2563,-122 431.2563,-86 552.7437,-86 552.7437,-122"/>
<text text-anchor="middle" x="492" y="-99.8" font-family="Times,serif" font-size="14.00" fill="#000000">HeaderComponent</text>
</g>
<!-- HeaderComponent&#45;&gt;AppModule -->
<g id="edge8" class="edge">
<title>HeaderComponent&#45;&gt;AppModule</title>
<path fill="none" stroke="#000000" d="M492,-122.0225C492,-139.3734 492,-163 492,-163 492,-163 666.2847,-163 666.2847,-163"/>
<polygon fill="#000000" stroke="#000000" points="666.2848,-166.5001 676.2847,-163 666.2847,-159.5001 666.2848,-166.5001"/>
</g>
<!-- ComptabiliteComponent -->
<g id="node9" class="node">
<title>ComptabiliteComponent</title>
<polygon fill="#ffffb3" stroke="#000000" points="413.4424,-122 258.5576,-122 258.5576,-86 413.4424,-86 413.4424,-122"/>
<text text-anchor="middle" x="336" y="-99.8" font-family="Times,serif" font-size="14.00" fill="#000000">ComptabiliteComponent</text>
</g>
<!-- ComptabiliteComponent&#45;&gt;AppModule -->
<g id="edge9" class="edge">
<title>ComptabiliteComponent&#45;&gt;AppModule</title>
<path fill="none" stroke="#000000" d="M336,-122.1061C336,-141.3391 336,-169 336,-169 336,-169 666.0266,-169 666.0266,-169"/>
<polygon fill="#000000" stroke="#000000" points="666.0266,-172.5001 676.0266,-169 666.0266,-165.5001 666.0266,-172.5001"/>
</g>
<!-- AppComponent  -->
<g id="node13" class="node">
<title>AppComponent </title>
<polygon fill="#80b1d3" stroke="#000000" points="772.439,-252 663.561,-252 663.561,-216 772.439,-216 772.439,-252"/>
<text text-anchor="middle" x="718" y="-229.8" font-family="Times,serif" font-size="14.00" fill="#000000">AppComponent </text>
</g>
<!-- AppModule&#45;&gt;AppComponent  -->
<g id="edge12" class="edge">
<title>AppModule&#45;&gt;AppComponent </title>
<path fill="none" stroke="#000000" stroke-dasharray="1,5" d="M718,-187.1061C718,-187.1061 718,-205.991 718,-205.991"/>
<polygon fill="#000000" stroke="#000000" points="714.5001,-205.9909 718,-215.991 721.5001,-205.991 714.5001,-205.9909"/>
</g>
<!-- CoreModule -->
<g id="node11" class="node">
<title>CoreModule</title>
<polygon fill="#8dd3c7" stroke="#000000" points="235.2619,-122 232.2619,-126 211.2619,-126 208.2619,-122 148.7381,-122 148.7381,-86 235.2619,-86 235.2619,-122"/>
<text text-anchor="middle" x="192" y="-99.8" font-family="Times,serif" font-size="14.00" fill="#000000">CoreModule</text>
</g>
<!-- CoreModule&#45;&gt;AppModule -->
<g id="edge10" class="edge">
<title>CoreModule&#45;&gt;AppModule</title>
<path fill="none" stroke="#000000" d="M192,-122.2843C192,-143.3211 192,-175 192,-175 192,-175 666.286,-175 666.286,-175"/>
<polygon fill="#000000" stroke="#000000" points="666.286,-178.5001 676.286,-175 666.286,-171.5001 666.286,-178.5001"/>
</g>
<!-- BrowserModule -->
<g id="node12" class="node">
<title>BrowserModule</title>
<polygon fill="#8dd3c7" stroke="#000000" points="130.4734,-122 127.4734,-126 106.4734,-126 103.4734,-122 23.5266,-122 23.5266,-86 130.4734,-86 130.4734,-122"/>
<text text-anchor="middle" x="77" y="-99.8" font-family="Times,serif" font-size="14.00" fill="#000000">BrowserModule</text>
</g>
<!-- BrowserModule&#45;&gt;AppModule -->
<g id="edge11" class="edge">
<title>BrowserModule&#45;&gt;AppModule</title>
<path fill="none" stroke="#000000" d="M77,-122.2479C77,-145.0179 77,-181 77,-181 77,-181 665.9422,-181 665.9422,-181"/>
<polygon fill="#000000" stroke="#000000" points="665.9422,-184.5001 675.9422,-181 665.9422,-177.5001 665.9422,-184.5001"/>
</g>
</g>
</svg>
