<?xml version="1.0" encoding="UTF-8" standalone="no"?>
<!DOCTYPE svg PUBLIC "-//W3C//DTD SVG 1.1//EN"
 "http://www.w3.org/Graphics/SVG/1.1/DTD/svg11.dtd">
<!-- Generated by graphviz version 2.40.1 (20161225.0304)
 -->
<!-- Title: dependencies Pages: 1 -->
<svg width="3190pt" height="439pt"
 viewBox="0.00 0.00 3190.00 439.00" xmlns="http://www.w3.org/2000/svg" xmlns:xlink="http://www.w3.org/1999/xlink">
<g id="graph0" class="graph" transform="scale(1 1) rotate(0) translate(4 435)">
<title>dependencies</title>
<polygon fill="#ffffff" stroke="transparent" points="-4,4 -4,-435 3186,-435 3186,4 -4,4"/>
<text text-anchor="start" x="1570.0091" y="-42.4" font-family="sans-serif" font-weight="bold" font-size="14.00" fill="#000000">Legend</text>
<polygon fill="#ffffb3" stroke="transparent" points="1357,-10 1357,-30 1377,-30 1377,-10 1357,-10"/>
<text text-anchor="start" x="1380.629" y="-15.4" font-family="sans-serif" font-size="14.00" fill="#000000"> &#160;Declarations</text>
<polygon fill="#8dd3c7" stroke="transparent" points="1470,-10 1470,-30 1490,-30 1490,-10 1470,-10"/>
<text text-anchor="start" x="1493.7251" y="-15.4" font-family="sans-serif" font-size="14.00" fill="#000000"> &#160;Module</text>
<polygon fill="#80b1d3" stroke="transparent" points="1556,-10 1556,-30 1576,-30 1576,-10 1556,-10"/>
<text text-anchor="start" x="1579.7812" y="-15.4" font-family="sans-serif" font-size="14.00" fill="#000000"> &#160;Bootstrap</text>
<polygon fill="#fdb462" stroke="transparent" points="1653,-10 1653,-30 1673,-30 1673,-10 1653,-10"/>
<text text-anchor="start" x="1676.6732" y="-15.4" font-family="sans-serif" font-size="14.00" fill="#000000"> &#160;Providers</text>
<polygon fill="#fb8072" stroke="transparent" points="1749,-10 1749,-30 1769,-30 1769,-10 1749,-10"/>
<text text-anchor="start" x="1772.7258" y="-15.4" font-family="sans-serif" font-size="14.00" fill="#000000"> &#160;Exports</text>
<g id="clust1" class="cluster">
<title>cluster_AppModule</title>
<polygon fill="none" stroke="#000000" stroke-dasharray="1,5" points="8,-222 8,-423 1456,-423 1456,-222 8,-222"/>
</g>
<g id="clust2" class="cluster">
<title>cluster_AppModule_declarations</title>
<polygon fill="none" stroke="#000000" points="16,-230 16,-282 1213,-282 1213,-230 16,-230"/>
</g>
<g id="clust12" class="cluster">
<title>cluster_AppModule_imports</title>
<polygon fill="none" stroke="#000000" points="1221,-230 1221,-282 1448,-282 1448,-230 1221,-230"/>
</g>
<g id="clust14" class="cluster">
<title>cluster_AppModule_bootstrap</title>
<polygon fill="none" stroke="#000000" points="694,-363 694,-415 818,-415 818,-363 694,-363"/>
</g>
<g id="clust16" class="cluster">
<title>cluster_CommandesModule</title>
<polygon fill="none" stroke="#000000" stroke-dasharray="1,5" points="1750,-146 1750,-355 2538,-355 2538,-146 1750,-146"/>
</g>
<g id="clust17" class="cluster">
<title>cluster_CommandesModule_declarations</title>
<polygon fill="none" stroke="#000000" points="2362,-154 2362,-206 2530,-206 2530,-154 2362,-154"/>
</g>
<g id="clust19" class="cluster">
<title>cluster_CommandesModule_imports</title>
<polygon fill="none" stroke="#000000" points="1758,-154 1758,-206 2354,-206 2354,-154 1758,-154"/>
</g>
<g id="clust20" class="cluster">
<title>cluster_CommandesModule_exports</title>
<polygon fill="none" stroke="#000000" points="1841,-295 1841,-347 2131,-347 2131,-295 1841,-295"/>
</g>
<g id="clust23" class="cluster">
<title>cluster_ComptabiliteModule</title>
<polygon fill="none" stroke="#000000" stroke-dasharray="1,5" points="2796,-146 2796,-355 3006,-355 3006,-146 2796,-146"/>
</g>
<g id="clust26" class="cluster">
<title>cluster_ComptabiliteModule_imports</title>
<polygon fill="none" stroke="#000000" points="2804,-154 2804,-206 2998,-206 2998,-154 2804,-154"/>
</g>
<g id="clust27" class="cluster">
<title>cluster_ComptabiliteModule_exports</title>
<polygon fill="none" stroke="#000000" points="2804,-295 2804,-347 2978,-347 2978,-295 2804,-295"/>
</g>
<g id="clust30" class="cluster">
<title>cluster_CoreModule</title>
<polygon fill="none" stroke="#000000" stroke-dasharray="1,5" points="130,-146 130,-214 1742,-214 1742,-146 130,-146"/>
</g>
<g id="clust31" class="cluster">
<title>cluster_CoreModule_declarations</title>
<polygon fill="none" stroke="#000000" points="138,-154 138,-206 562,-206 562,-154 138,-154"/>
</g>
<g id="clust35" class="cluster">
<title>cluster_CoreModule_imports</title>
<polygon fill="none" stroke="#000000" points="1347,-154 1347,-206 1734,-206 1734,-154 1347,-154"/>
</g>
<g id="clust36" class="cluster">
<title>cluster_CoreModule_exports</title>
<polygon fill="none" stroke="#000000" points="570,-154 570,-206 1121,-206 1121,-154 570,-154"/>
</g>
<g id="clust38" class="cluster">
<title>cluster_CoreModule_providers</title>
<polygon fill="none" stroke="#000000" points="1129,-154 1129,-206 1339,-206 1339,-154 1129,-154"/>
</g>
<g id="clust39" class="cluster">
<title>cluster_CoreRootingModule</title>
<polygon fill="none" stroke="#000000" stroke-dasharray="1,5" points="1555,-70 1555,-138 1765,-138 1765,-70 1555,-70"/>
</g>
<g id="clust41" class="cluster">
<title>cluster_CoreRootingModule_imports</title>
<polygon fill="none" stroke="#000000" points="1563,-78 1563,-130 1757,-130 1757,-78 1563,-78"/>
</g>
<g id="clust45" class="cluster">
<title>cluster_GestionstocksModule</title>
<polygon fill="none" stroke="#000000" stroke-dasharray="1,5" points="1464,-295 1464,-347 1618,-347 1618,-295 1464,-295"/>
</g>
<g id="clust52" class="cluster">
<title>cluster_PlanningModule</title>
<polygon fill="none" stroke="#000000" stroke-dasharray="1,5" points="2546,-230 2546,-282 2672,-282 2672,-230 2546,-230"/>
</g>
<g id="clust58" class="cluster">
<title>cluster_ProduitsModule</title>
<polygon fill="none" stroke="#000000" stroke-dasharray="1,5" points="3014,-146 3014,-282 3174,-282 3174,-146 3014,-146"/>
</g>
<g id="clust59" class="cluster">
<title>cluster_ProduitsModule_declarations</title>
<polygon fill="none" stroke="#000000" points="3022,-154 3022,-206 3166,-206 3166,-154 3022,-154"/>
</g>
<g id="clust65" class="cluster">
<title>cluster_UsersModule</title>
<polygon fill="none" stroke="#000000" stroke-dasharray="1,5" points="2680,-230 2680,-282 2788,-282 2788,-230 2680,-230"/>
</g>
<!-- AppComponent -->
<g id="node1" class="node">
<title>AppComponent</title>
<polygon fill="#ffffb3" stroke="#000000" points="450.9399,-274 345.0601,-274 345.0601,-238 450.9399,-238 450.9399,-274"/>
<text text-anchor="middle" x="398" y="-251.8" font-family="Times,serif" font-size="14.00" fill="#000000">AppComponent</text>
</g>
<!-- AppModule -->
<g id="node10" class="node">
<title>AppModule</title>
<polygon fill="#8dd3c7" stroke="#000000" points="797.6571,-339 794.6571,-343 773.6571,-343 770.6571,-339 714.3429,-339 714.3429,-303 797.6571,-303 797.6571,-339"/>
<text text-anchor="middle" x="756" y="-316.8" font-family="Times,serif" font-size="14.00" fill="#000000">AppModule</text>
</g>
<!-- AppComponent&#45;&gt;AppModule -->
<g id="edge1" class="edge">
<title>AppComponent&#45;&gt;AppModule</title>
<path fill="none" stroke="#000000" d="M398,-274.1061C398,-293.3391 398,-321 398,-321 398,-321 704.2322,-321 704.2322,-321"/>
<polygon fill="#000000" stroke="#000000" points="704.2322,-324.5001 714.2322,-321 704.2322,-317.5001 704.2322,-324.5001"/>
</g>
<!-- PlanningComponent -->
<g id="node2" class="node">
<title>PlanningComponent</title>
<polygon fill="#ffffb3" stroke="#000000" points="327.6108,-274 196.3892,-274 196.3892,-238 327.6108,-238 327.6108,-274"/>
<text text-anchor="middle" x="262" y="-251.8" font-family="Times,serif" font-size="14.00" fill="#000000">PlanningComponent</text>
</g>
<!-- PlanningComponent&#45;&gt;AppModule -->
<g id="edge2" class="edge">
<title>PlanningComponent&#45;&gt;AppModule</title>
<path fill="none" stroke="#000000" d="M262,-274.2843C262,-295.3211 262,-327 262,-327 262,-327 704.3076,-327 704.3076,-327"/>
<polygon fill="#000000" stroke="#000000" points="704.3076,-330.5001 714.3076,-327 704.3076,-323.5001 704.3076,-330.5001"/>
</g>
<!-- GestionstocksComponent -->
<g id="node3" class="node">
<title>GestionstocksComponent</title>
<polygon fill="#ffffb3" stroke="#000000" points="1204.8738,-274 1045.1262,-274 1045.1262,-238 1204.8738,-238 1204.8738,-274"/>
<text text-anchor="middle" x="1125" y="-251.8" font-family="Times,serif" font-size="14.00" fill="#000000">GestionstocksComponent</text>
</g>
<!-- GestionstocksComponent&#45;&gt;AppModule -->
<g id="edge3" class="edge">
<title>GestionstocksComponent&#45;&gt;AppModule</title>
<path fill="none" stroke="#000000" d="M1098.3544,-274.0267C1098.3544,-294.7672 1098.3544,-326 1098.3544,-326 1098.3544,-326 807.9794,-326 807.9794,-326"/>
<polygon fill="#000000" stroke="#000000" points="807.9794,-322.5001 797.9794,-326 807.9793,-329.5001 807.9794,-322.5001"/>
</g>
<!-- GestionstocksModule -->
<g id="node37" class="node">
<title>GestionstocksModule</title>
<polygon fill="#8dd3c7" stroke="#000000" points="1610.0912,-339 1607.0912,-343 1586.0912,-343 1583.0912,-339 1471.9088,-339 1471.9088,-303 1610.0912,-303 1610.0912,-339"/>
<text text-anchor="middle" x="1541" y="-316.8" font-family="Times,serif" font-size="14.00" fill="#000000">GestionstocksModule</text>
</g>
<!-- GestionstocksComponent&#45;&gt;GestionstocksModule -->
<g id="edge42" class="edge">
<title>GestionstocksComponent&#45;&gt;GestionstocksModule</title>
<path fill="none" stroke="#000000" d="M1151.6456,-274.027C1151.6456,-290.3976 1151.6456,-312 1151.6456,-312 1151.6456,-312 1461.8399,-312 1461.8399,-312"/>
<polygon fill="#000000" stroke="#000000" points="1461.8399,-315.5001 1471.8399,-312 1461.8399,-308.5001 1461.8399,-315.5001"/>
</g>
<!-- OrderByPipe -->
<g id="node4" class="node">
<title>OrderByPipe</title>
<polygon fill="#ffffb3" stroke="#000000" points="1026.8669,-274 937.1331,-274 937.1331,-238 1026.8669,-238 1026.8669,-274"/>
<text text-anchor="middle" x="982" y="-251.8" font-family="Times,serif" font-size="14.00" fill="#000000">OrderByPipe</text>
</g>
<!-- OrderByPipe&#45;&gt;AppModule -->
<g id="edge4" class="edge">
<title>OrderByPipe&#45;&gt;AppModule</title>
<path fill="none" stroke="#000000" d="M982,-274.1061C982,-293.3391 982,-321 982,-321 982,-321 807.7153,-321 807.7153,-321"/>
<polygon fill="#000000" stroke="#000000" points="807.7153,-317.5001 797.7153,-321 807.7152,-324.5001 807.7153,-317.5001"/>
</g>
<!-- UniquePipe -->
<g id="node5" class="node">
<title>UniquePipe</title>
<polygon fill="#ffffb3" stroke="#000000" points="919.0997,-274 836.9003,-274 836.9003,-238 919.0997,-238 919.0997,-274"/>
<text text-anchor="middle" x="878" y="-251.8" font-family="Times,serif" font-size="14.00" fill="#000000">UniquePipe</text>
</g>
<!-- UniquePipe&#45;&gt;AppModule -->
<g id="edge5" class="edge">
<title>UniquePipe&#45;&gt;AppModule</title>
<path fill="none" stroke="#000000" d="M878,-274.302C878,-292.2699 878,-317 878,-317 878,-317 807.9855,-317 807.9855,-317"/>
<polygon fill="#000000" stroke="#000000" points="807.9855,-313.5001 797.9855,-317 807.9854,-320.5001 807.9855,-313.5001"/>
</g>
<!-- ProduitsSearchPipe -->
<g id="node6" class="node">
<title>ProduitsSearchPipe</title>
<polygon fill="#ffffb3" stroke="#000000" points="818.6443,-274 693.3557,-274 693.3557,-238 818.6443,-238 818.6443,-274"/>
<text text-anchor="middle" x="756" y="-251.8" font-family="Times,serif" font-size="14.00" fill="#000000">ProduitsSearchPipe</text>
</g>
<!-- ProduitsSearchPipe&#45;&gt;AppModule -->
<g id="edge6" class="edge">
<title>ProduitsSearchPipe&#45;&gt;AppModule</title>
<path fill="none" stroke="#000000" d="M756,-274.1061C756,-274.1061 756,-292.991 756,-292.991"/>
<polygon fill="#000000" stroke="#000000" points="752.5001,-292.9909 756,-302.991 759.5001,-292.991 752.5001,-292.9909"/>
</g>
<!-- SumPipe -->
<g id="node7" class="node">
<title>SumPipe</title>
<polygon fill="#ffffb3" stroke="#000000" points="675.0624,-274 608.9376,-274 608.9376,-238 675.0624,-238 675.0624,-274"/>
<text text-anchor="middle" x="642" y="-251.8" font-family="Times,serif" font-size="14.00" fill="#000000">SumPipe</text>
</g>
<!-- SumPipe&#45;&gt;AppModule -->
<g id="edge7" class="edge">
<title>SumPipe&#45;&gt;AppModule</title>
<path fill="none" stroke="#000000" d="M642,-274.2396C642,-289.5706 642,-309 642,-309 642,-309 704.1979,-309 704.1979,-309"/>
<polygon fill="#000000" stroke="#000000" points="704.198,-312.5001 714.1979,-309 704.1979,-305.5001 704.198,-312.5001"/>
</g>
<!-- HeaderComponent -->
<g id="node8" class="node">
<title>HeaderComponent</title>
<polygon fill="#ffffb3" stroke="#000000" points="590.7437,-274 469.2563,-274 469.2563,-238 590.7437,-238 590.7437,-274"/>
<text text-anchor="middle" x="530" y="-251.8" font-family="Times,serif" font-size="14.00" fill="#000000">HeaderComponent</text>
</g>
<!-- HeaderComponent&#45;&gt;AppModule -->
<g id="edge8" class="edge">
<title>HeaderComponent&#45;&gt;AppModule</title>
<path fill="none" stroke="#000000" d="M530,-274.0225C530,-291.3734 530,-315 530,-315 530,-315 704.2847,-315 704.2847,-315"/>
<polygon fill="#000000" stroke="#000000" points="704.2848,-318.5001 714.2847,-315 704.2847,-311.5001 704.2848,-318.5001"/>
</g>
<!-- ComptabiliteComponent -->
<g id="node9" class="node">
<title>ComptabiliteComponent</title>
<polygon fill="#ffffb3" stroke="#000000" points="178.4424,-274 23.5576,-274 23.5576,-238 178.4424,-238 178.4424,-274"/>
<text text-anchor="middle" x="101" y="-251.8" font-family="Times,serif" font-size="14.00" fill="#000000">ComptabiliteComponent</text>
</g>
<!-- ComptabiliteComponent&#45;&gt;AppModule -->
<g id="edge9" class="edge">
<title>ComptabiliteComponent&#45;&gt;AppModule</title>
<path fill="none" stroke="#000000" d="M101,-274.2479C101,-297.0179 101,-333 101,-333 101,-333 704.0304,-333 704.0304,-333"/>
<polygon fill="#000000" stroke="#000000" points="704.0304,-336.5001 714.0304,-333 704.0304,-329.5001 704.0304,-336.5001"/>
</g>
<!-- ComptabiliteModule -->
<g id="node22" class="node">
<title>ComptabiliteModule</title>
<polygon fill="#8dd3c7" stroke="#000000" points="2946.1596,-274 2943.1596,-278 2922.1596,-278 2919.1596,-274 2813.8404,-274 2813.8404,-238 2946.1596,-238 2946.1596,-274"/>
<text text-anchor="middle" x="2880" y="-251.8" font-family="Times,serif" font-size="14.00" fill="#000000">ComptabiliteModule</text>
</g>
<!-- ComptabiliteComponent&#45;&gt;ComptabiliteModule -->
<g id="edge20" class="edge">
<title>ComptabiliteComponent&#45;&gt;ComptabiliteModule</title>
<path fill="none" stroke="#000000" d="M162.2791,-237.7542C162.2791,-223.8228 162.2791,-207 162.2791,-207 162.2791,-207 2857.8901,-207 2857.8901,-207 2857.8901,-207 2857.8901,-227.7542 2857.8901,-227.7542"/>
<polygon fill="#000000" stroke="#000000" points="2854.3902,-227.7542 2857.8901,-237.7542 2861.3902,-227.7542 2854.3902,-227.7542"/>
</g>
<!-- AppComponent  -->
<g id="node13" class="node">
<title>AppComponent </title>
<polygon fill="#80b1d3" stroke="#000000" points="810.439,-407 701.561,-407 701.561,-371 810.439,-371 810.439,-407"/>
<text text-anchor="middle" x="756" y="-384.8" font-family="Times,serif" font-size="14.00" fill="#000000">AppComponent </text>
</g>
<!-- AppModule&#45;&gt;AppComponent  -->
<g id="edge12" class="edge">
<title>AppModule&#45;&gt;AppComponent </title>
<path fill="none" stroke="#000000" stroke-dasharray="1,5" d="M756,-339.2228C756,-339.2228 756,-360.7269 756,-360.7269"/>
<polygon fill="#000000" stroke="#000000" points="752.5001,-360.7269 756,-370.7269 759.5001,-360.727 752.5001,-360.7269"/>
</g>
<!-- CoreModule -->
<g id="node11" class="node">
<title>CoreModule</title>
<polygon fill="#8dd3c7" stroke="#000000" points="1440.2619,-274 1437.2619,-278 1416.2619,-278 1413.2619,-274 1353.7381,-274 1353.7381,-238 1440.2619,-238 1440.2619,-274"/>
<text text-anchor="middle" x="1397" y="-251.8" font-family="Times,serif" font-size="14.00" fill="#000000">CoreModule</text>
</g>
<!-- CoreModule&#45;&gt;AppModule -->
<g id="edge10" class="edge">
<title>CoreModule&#45;&gt;AppModule</title>
<path fill="none" stroke="#000000" d="M1382.5397,-274.3228C1382.5397,-297.6602 1382.5397,-335 1382.5397,-335 1382.5397,-335 808.0819,-335 808.0819,-335"/>
<polygon fill="#000000" stroke="#000000" points="808.082,-331.5001 798.0819,-335 808.0819,-338.5001 808.082,-331.5001"/>
</g>
<!-- RouterModule  -->
<g id="node21" class="node">
<title>RouterModule </title>
<polygon fill="#fb8072" stroke="#000000" points="1950.6523,-339 1849.3477,-339 1849.3477,-303 1950.6523,-303 1950.6523,-339"/>
<text text-anchor="middle" x="1900" y="-316.8" font-family="Times,serif" font-size="14.00" fill="#000000">RouterModule </text>
</g>
<!-- CoreModule&#45;&gt;RouterModule  -->
<g id="edge34" class="edge">
<title>CoreModule&#45;&gt;RouterModule </title>
<path fill="none" stroke="#000000" stroke-dasharray="5,2" d="M1440.3583,-270C1554.3094,-270 1853.504,-270 1853.504,-270 1853.504,-270 1853.504,-292.8757 1853.504,-292.8757"/>
<polygon fill="#000000" stroke="#000000" points="1850.0041,-292.8757 1853.504,-302.8757 1857.0041,-292.8757 1850.0041,-292.8757"/>
</g>
<!-- LoginComponent  -->
<g id="node31" class="node">
<title>LoginComponent </title>
<polygon fill="#fb8072" stroke="#000000" points="1113.2759,-198 994.7241,-198 994.7241,-162 1113.2759,-162 1113.2759,-198"/>
<text text-anchor="middle" x="1054" y="-175.8" font-family="Times,serif" font-size="14.00" fill="#000000">LoginComponent </text>
</g>
<!-- CoreModule&#45;&gt;LoginComponent  -->
<g id="edge33" class="edge">
<title>CoreModule&#45;&gt;LoginComponent </title>
<path fill="none" stroke="#000000" stroke-dasharray="5,2" d="M1413.8875,-237.8903C1413.8875,-228.103 1413.8875,-218 1413.8875,-218 1413.8875,-218 1079.1005,-218 1079.1005,-218 1079.1005,-218 1079.1005,-208.1097 1079.1005,-208.1097"/>
<polygon fill="#000000" stroke="#000000" points="1082.6005,-208.1096 1079.1005,-198.1097 1075.6005,-208.1097 1082.6005,-208.1096"/>
</g>
<!-- AdminComponent  -->
<g id="node32" class="node">
<title>AdminComponent </title>
<polygon fill="#fb8072" stroke="#000000" points="976.7205,-198 853.2795,-198 853.2795,-162 976.7205,-162 976.7205,-198"/>
<text text-anchor="middle" x="915" y="-175.8" font-family="Times,serif" font-size="14.00" fill="#000000">AdminComponent </text>
</g>
<!-- CoreModule&#45;&gt;AdminComponent  -->
<g id="edge35" class="edge">
<title>CoreModule&#45;&gt;AdminComponent </title>
<path fill="none" stroke="#000000" stroke-dasharray="5,2" d="M1405.4438,-237.68C1405.4438,-229.2117 1405.4438,-221 1405.4438,-221 1405.4438,-221 956.9634,-221 956.9634,-221 956.9634,-221 956.9634,-208.1025 956.9634,-208.1025"/>
<polygon fill="#000000" stroke="#000000" points="960.4634,-208.1025 956.9634,-198.1025 953.4634,-208.1026 960.4634,-208.1025"/>
</g>
<!-- EmployesComponent  -->
<g id="node33" class="node">
<title>EmployesComponent </title>
<polygon fill="#fb8072" stroke="#000000" points="835.3255,-198 694.6745,-198 694.6745,-162 835.3255,-162 835.3255,-198"/>
<text text-anchor="middle" x="765" y="-175.8" font-family="Times,serif" font-size="14.00" fill="#000000">EmployesComponent </text>
</g>
<!-- CoreModule&#45;&gt;EmployesComponent  -->
<g id="edge36" class="edge">
<title>CoreModule&#45;&gt;EmployesComponent </title>
<path fill="none" stroke="#000000" stroke-dasharray="5,2" d="M1397,-237.7566C1397,-230.5703 1397,-224 1397,-224 1397,-224 827.1173,-224 827.1173,-224 827.1173,-224 827.1173,-208.1505 827.1173,-208.1505"/>
<polygon fill="#000000" stroke="#000000" points="830.6174,-208.1505 827.1173,-198.1505 823.6174,-208.1506 830.6174,-208.1505"/>
</g>
<!-- FormsModule  -->
<g id="node34" class="node">
<title>FormsModule </title>
<polygon fill="#fb8072" stroke="#000000" points="676.3283,-198 577.6717,-198 577.6717,-162 676.3283,-162 676.3283,-198"/>
<text text-anchor="middle" x="627" y="-175.8" font-family="Times,serif" font-size="14.00" fill="#000000">FormsModule </text>
</g>
<!-- CoreModule&#45;&gt;FormsModule  -->
<g id="edge37" class="edge">
<title>CoreModule&#45;&gt;FormsModule </title>
<path fill="none" stroke="#000000" stroke-dasharray="5,2" d="M1388.5562,-237.7985C1388.5562,-231.972 1388.5562,-227 1388.5562,-227 1388.5562,-227 642,-227 642,-227 642,-227 642,-208.037 642,-208.037"/>
<polygon fill="#000000" stroke="#000000" points="645.5001,-208.037 642,-198.037 638.5001,-208.037 645.5001,-208.037"/>
</g>
<!-- CoreModule&#45;&gt;GestionstocksModule -->
<g id="edge44" class="edge">
<title>CoreModule&#45;&gt;GestionstocksModule</title>
<path fill="none" stroke="#000000" d="M1411.4603,-274.1871C1411.4603,-289.1824 1411.4603,-308 1411.4603,-308 1411.4603,-308 1461.6793,-308 1461.6793,-308"/>
<polygon fill="#000000" stroke="#000000" points="1461.6794,-311.5001 1471.6793,-308 1461.6793,-304.5001 1461.6794,-311.5001"/>
</g>
<!-- BrowserModule -->
<g id="node12" class="node">
<title>BrowserModule</title>
<polygon fill="#8dd3c7" stroke="#000000" points="1335.4734,-274 1332.4734,-278 1311.4734,-278 1308.4734,-274 1228.5266,-274 1228.5266,-238 1335.4734,-238 1335.4734,-274"/>
<text text-anchor="middle" x="1282" y="-251.8" font-family="Times,serif" font-size="14.00" fill="#000000">BrowserModule</text>
</g>
<!-- BrowserModule&#45;&gt;AppModule -->
<g id="edge11" class="edge">
<title>BrowserModule&#45;&gt;AppModule</title>
<path fill="none" stroke="#000000" d="M1282,-274.2921C1282,-296.2057 1282,-330 1282,-330 1282,-330 807.714,-330 807.714,-330"/>
<polygon fill="#000000" stroke="#000000" points="807.714,-326.5001 797.714,-330 807.714,-333.5001 807.714,-326.5001"/>
</g>
<!-- CommandesComponent -->
<g id="node14" class="node">
<title>CommandesComponent</title>
<polygon fill="#ffffb3" stroke="#000000" points="2521.8243,-198 2370.1757,-198 2370.1757,-162 2521.8243,-162 2521.8243,-198"/>
<text text-anchor="middle" x="2446" y="-175.8" font-family="Times,serif" font-size="14.00" fill="#000000">CommandesComponent</text>
</g>
<!-- CommandesModule -->
<g id="node15" class="node">
<title>CommandesModule</title>
<polygon fill="#8dd3c7" stroke="#000000" points="2110.5422,-274 2107.5422,-278 2086.5422,-278 2083.5422,-274 1981.4578,-274 1981.4578,-238 2110.5422,-238 2110.5422,-274"/>
<text text-anchor="middle" x="2046" y="-251.8" font-family="Times,serif" font-size="14.00" fill="#000000">CommandesModule</text>
</g>
<!-- CommandesComponent&#45;&gt;CommandesModule -->
<g id="edge13" class="edge">
<title>CommandesComponent&#45;&gt;CommandesModule</title>
<path fill="none" stroke="#000000" d="M2446,-198.0263C2446,-222.9773 2446,-265 2446,-265 2446,-265 2120.7115,-265 2120.7115,-265"/>
<polygon fill="#000000" stroke="#000000" points="2120.7115,-261.5001 2110.7115,-265 2120.7114,-268.5001 2120.7115,-261.5001"/>
</g>
<!-- CommandesComponent  -->
<g id="node20" class="node">
<title>CommandesComponent </title>
<polygon fill="#fb8072" stroke="#000000" points="2123.3241,-339 1968.6759,-339 1968.6759,-303 2123.3241,-303 2123.3241,-339"/>
<text text-anchor="middle" x="2046" y="-316.8" font-family="Times,serif" font-size="14.00" fill="#000000">CommandesComponent </text>
</g>
<!-- CommandesModule&#45;&gt;CommandesComponent  -->
<g id="edge18" class="edge">
<title>CommandesModule&#45;&gt;CommandesComponent </title>
<path fill="none" stroke="#000000" stroke-dasharray="5,2" d="M2046,-274.1061C2046,-274.1061 2046,-292.991 2046,-292.991"/>
<polygon fill="#000000" stroke="#000000" points="2042.5001,-292.9909 2046,-302.991 2049.5001,-292.991 2042.5001,-292.9909"/>
</g>
<!-- CommandesModule&#45;&gt;RouterModule  -->
<g id="edge19" class="edge">
<title>CommandesModule&#45;&gt;RouterModule </title>
<path fill="none" stroke="#000000" stroke-dasharray="5,2" d="M1981.3723,-265C1948.4218,-265 1915.212,-265 1915.212,-265 1915.212,-265 1915.212,-292.973 1915.212,-292.973"/>
<polygon fill="#000000" stroke="#000000" points="1911.712,-292.973 1915.212,-302.973 1918.712,-292.973 1911.712,-292.973"/>
</g>
<!-- CommonModule -->
<g id="node16" class="node">
<title>CommonModule</title>
<polygon fill="#8dd3c7" stroke="#000000" points="2345.6681,-198 2342.6681,-202 2321.6681,-202 2318.6681,-198 2234.3319,-198 2234.3319,-162 2345.6681,-162 2345.6681,-198"/>
<text text-anchor="middle" x="2290" y="-175.8" font-family="Times,serif" font-size="14.00" fill="#000000">CommonModule</text>
</g>
<!-- CommonModule&#45;&gt;CoreModule -->
<g id="edge27" class="edge">
<title>CommonModule&#45;&gt;CoreModule</title>
<path fill="none" stroke="#000000" d="M2262.0831,-198.1432C2262.0831,-204.4611 2262.0831,-210 2262.0831,-210 2262.0831,-210 1430.775,-210 1430.775,-210 1430.775,-210 1430.775,-227.8196 1430.775,-227.8196"/>
<polygon fill="#000000" stroke="#000000" points="1427.2751,-227.8195 1430.775,-237.8196 1434.2751,-227.8196 1427.2751,-227.8195"/>
</g>
<!-- CommonModule&#45;&gt;CommandesModule -->
<g id="edge14" class="edge">
<title>CommonModule&#45;&gt;CommandesModule</title>
<path fill="none" stroke="#000000" d="M2317.9169,-198.0109C2317.9169,-220.4852 2317.9169,-256 2317.9169,-256 2317.9169,-256 2120.7854,-256 2120.7854,-256"/>
<polygon fill="#000000" stroke="#000000" points="2120.7854,-252.5001 2110.7854,-256 2120.7854,-259.5001 2120.7854,-252.5001"/>
</g>
<!-- CoreRootingModule -->
<g id="node28" class="node">
<title>CoreRootingModule</title>
<polygon fill="#8dd3c7" stroke="#000000" points="1725.8795,-198 1722.8795,-202 1701.8795,-202 1698.8795,-198 1594.1205,-198 1594.1205,-162 1725.8795,-162 1725.8795,-198"/>
<text text-anchor="middle" x="1660" y="-175.8" font-family="Times,serif" font-size="14.00" fill="#000000">CoreRootingModule</text>
</g>
<!-- CommonModule&#45;&gt;CoreRootingModule -->
<g id="edge39" class="edge">
<title>CommonModule&#45;&gt;CoreRootingModule</title>
<path fill="none" stroke="#000000" d="M2248.1246,-198.1903C2248.1246,-201.5376 2248.1246,-204 2248.1246,-204 2248.1246,-204 1648.677,-204 1648.677,-204 1648.677,-204 1648.677,-203.419 1648.677,-203.419"/>
<polygon fill="#000000" stroke="#000000" points="1652.1772,-208.1902 1648.677,-198.1903 1645.1772,-208.1903 1652.1772,-208.1902"/>
</g>
<!-- CommonModule&#45;&gt;GestionstocksModule -->
<g id="edge43" class="edge">
<title>CommonModule&#45;&gt;GestionstocksModule</title>
<path fill="none" stroke="#000000" d="M2276.0416,-198.0449C2276.0416,-205.749 2276.0416,-213 2276.0416,-213 2276.0416,-213 1604.7172,-213 1604.7172,-213 1604.7172,-213 1604.7172,-292.6793 1604.7172,-292.6793"/>
<polygon fill="#000000" stroke="#000000" points="1601.2173,-292.6792 1604.7172,-302.6793 1608.2173,-292.6793 1601.2173,-292.6792"/>
</g>
<!-- PlanningModule -->
<g id="node38" class="node">
<title>PlanningModule</title>
<polygon fill="#8dd3c7" stroke="#000000" points="2663.8287,-274 2660.8287,-278 2639.8287,-278 2636.8287,-274 2554.1713,-274 2554.1713,-238 2663.8287,-238 2663.8287,-274"/>
<text text-anchor="middle" x="2609" y="-251.8" font-family="Times,serif" font-size="14.00" fill="#000000">PlanningModule</text>
</g>
<!-- CommonModule&#45;&gt;PlanningModule -->
<g id="edge45" class="edge">
<title>CommonModule&#45;&gt;PlanningModule</title>
<path fill="none" stroke="#000000" d="M2331.8754,-198.308C2331.8754,-218.1455 2331.8754,-247 2331.8754,-247 2331.8754,-247 2544.2491,-247 2544.2491,-247"/>
<polygon fill="#000000" stroke="#000000" points="2544.2491,-250.5001 2554.2491,-247 2544.2491,-243.5001 2544.2491,-250.5001"/>
</g>
<!-- ProduitsModule -->
<g id="node40" class="node">
<title>ProduitsModule</title>
<polygon fill="#8dd3c7" stroke="#000000" points="3137.219,-274 3134.219,-278 3113.219,-278 3110.219,-274 3030.781,-274 3030.781,-238 3137.219,-238 3137.219,-274"/>
<text text-anchor="middle" x="3084" y="-251.8" font-family="Times,serif" font-size="14.00" fill="#000000">ProduitsModule</text>
</g>
<!-- CommonModule&#45;&gt;ProduitsModule -->
<g id="edge47" class="edge">
<title>CommonModule&#45;&gt;ProduitsModule</title>
<path fill="none" stroke="#000000" d="M2303.9585,-198.08C2303.9585,-199.8464 2303.9585,-201 2303.9585,-201 2303.9585,-201 3066.2969,-201 3066.2969,-201 3066.2969,-201 3066.2969,-227.9909 3066.2969,-227.9909"/>
<polygon fill="#000000" stroke="#000000" points="3062.797,-227.9909 3066.2969,-237.9909 3069.797,-227.991 3062.797,-227.9909"/>
</g>
<!-- UsersModule -->
<g id="node41" class="node">
<title>UsersModule</title>
<polygon fill="#8dd3c7" stroke="#000000" points="2779.9218,-274 2776.9218,-278 2755.9218,-278 2752.9218,-274 2688.0782,-274 2688.0782,-238 2779.9218,-238 2779.9218,-274"/>
<text text-anchor="middle" x="2734" y="-251.8" font-family="Times,serif" font-size="14.00" fill="#000000">UsersModule</text>
</g>
<!-- CommonModule&#45;&gt;UsersModule -->
<g id="edge48" class="edge">
<title>CommonModule&#45;&gt;UsersModule</title>
<path fill="none" stroke="#000000" d="M2290,-198.4218C2290,-207.2791 2290,-216 2290,-216 2290,-216 2734,-216 2734,-216 2734,-216 2734,-227.8726 2734,-227.8726"/>
<polygon fill="#000000" stroke="#000000" points="2730.5001,-227.8725 2734,-237.8726 2737.5001,-227.8726 2730.5001,-227.8725"/>
</g>
<!-- CommandesRoutingModule -->
<g id="node17" class="node">
<title>CommandesRoutingModule</title>
<polygon fill="#8dd3c7" stroke="#000000" points="2216.1595,-198 2213.1595,-202 2192.1595,-202 2189.1595,-198 2041.8405,-198 2041.8405,-162 2216.1595,-162 2216.1595,-198"/>
<text text-anchor="middle" x="2129" y="-175.8" font-family="Times,serif" font-size="14.00" fill="#000000">CommandesRoutingModule</text>
</g>
<!-- CommandesRoutingModule&#45;&gt;CommandesModule -->
<g id="edge15" class="edge">
<title>CommandesRoutingModule&#45;&gt;CommandesModule</title>
<path fill="none" stroke="#000000" d="M2076.2206,-198.0109C2076.2206,-198.0109 2076.2206,-227.855 2076.2206,-227.855"/>
<polygon fill="#000000" stroke="#000000" points="2072.7206,-227.8549 2076.2206,-237.855 2079.7206,-227.855 2072.7206,-227.8549"/>
</g>
<!-- ReactiveFormsModule -->
<g id="node18" class="node">
<title>ReactiveFormsModule</title>
<polygon fill="#8dd3c7" stroke="#000000" points="2024.3047,-198 2021.3047,-202 2000.3047,-202 1997.3047,-198 1879.6953,-198 1879.6953,-162 2024.3047,-162 2024.3047,-198"/>
<text text-anchor="middle" x="1952" y="-175.8" font-family="Times,serif" font-size="14.00" fill="#000000">ReactiveFormsModule</text>
</g>
<!-- ReactiveFormsModule&#45;&gt;CoreModule -->
<g id="edge29" class="edge">
<title>ReactiveFormsModule&#45;&gt;CoreModule</title>
<path fill="none" stroke="#000000" d="M1897.5299,-198.3802C1897.5299,-222.2785 1897.5299,-261 1897.5299,-261 1897.5299,-261 1450.5431,-261 1450.5431,-261"/>
<polygon fill="#000000" stroke="#000000" points="1450.5432,-257.5001 1440.5431,-261 1450.5431,-264.5001 1450.5432,-257.5001"/>
</g>
<!-- ReactiveFormsModule&#45;&gt;CommandesModule -->
<g id="edge16" class="edge">
<title>ReactiveFormsModule&#45;&gt;CommandesModule</title>
<path fill="none" stroke="#000000" d="M2002.6908,-198.0109C2002.6908,-198.0109 2002.6908,-227.855 2002.6908,-227.855"/>
<polygon fill="#000000" stroke="#000000" points="1999.1908,-227.8549 2002.6908,-237.855 2006.1908,-227.855 1999.1908,-227.8549"/>
</g>
<!-- FormsModule -->
<g id="node19" class="node">
<title>FormsModule</title>
<polygon fill="#8dd3c7" stroke="#000000" points="1861.8288,-198 1858.8288,-202 1837.8288,-202 1834.8288,-198 1766.1712,-198 1766.1712,-162 1861.8288,-162 1861.8288,-198"/>
<text text-anchor="middle" x="1814" y="-175.8" font-family="Times,serif" font-size="14.00" fill="#000000">FormsModule</text>
</g>
<!-- FormsModule&#45;&gt;CoreModule -->
<g id="edge31" class="edge">
<title>FormsModule&#45;&gt;CoreModule</title>
<path fill="none" stroke="#000000" d="M1807.8799,-198.0109C1807.8799,-220.4852 1807.8799,-256 1807.8799,-256 1807.8799,-256 1450.5824,-256 1450.5824,-256"/>
<polygon fill="#000000" stroke="#000000" points="1450.5824,-252.5001 1440.5824,-256 1450.5823,-259.5001 1450.5824,-252.5001"/>
</g>
<!-- FormsModule&#45;&gt;CommandesModule -->
<g id="edge17" class="edge">
<title>FormsModule&#45;&gt;CommandesModule</title>
<path fill="none" stroke="#000000" d="M1857.584,-198.2222C1857.584,-216.8285 1857.584,-243 1857.584,-243 1857.584,-243 1971.4215,-243 1971.4215,-243"/>
<polygon fill="#000000" stroke="#000000" points="1971.4216,-246.5001 1981.4215,-243 1971.4215,-239.5001 1971.4216,-246.5001"/>
</g>
<!-- ComptabiliteModule&#45;&gt;RouterModule  -->
<g id="edge23" class="edge">
<title>ComptabiliteModule&#45;&gt;RouterModule </title>
<path fill="none" stroke="#000000" stroke-dasharray="5,2" d="M2857.8901,-274.0449C2857.8901,-281.749 2857.8901,-289 2857.8901,-289 2857.8901,-289 1932.894,-289 1932.894,-289 1932.894,-289 1932.894,-292.7566 1932.894,-292.7566"/>
<polygon fill="#000000" stroke="#000000" points="1929.3941,-292.7566 1932.894,-302.7566 1936.3941,-292.7566 1929.3941,-292.7566"/>
</g>
<!-- ComptabiliteComponent  -->
<g id="node24" class="node">
<title>ComptabiliteComponent </title>
<polygon fill="#fb8072" stroke="#000000" points="2969.9418,-339 2812.0582,-339 2812.0582,-303 2969.9418,-303 2969.9418,-339"/>
<text text-anchor="middle" x="2891" y="-316.8" font-family="Times,serif" font-size="14.00" fill="#000000">ComptabiliteComponent </text>
</g>
<!-- ComptabiliteModule&#45;&gt;ComptabiliteComponent  -->
<g id="edge22" class="edge">
<title>ComptabiliteModule&#45;&gt;ComptabiliteComponent </title>
<path fill="none" stroke="#000000" stroke-dasharray="5,2" d="M2902.1099,-274.1061C2902.1099,-274.1061 2902.1099,-292.991 2902.1099,-292.991"/>
<polygon fill="#000000" stroke="#000000" points="2898.61,-292.9909 2902.1099,-302.991 2905.61,-292.991 2898.61,-292.9909"/>
</g>
<!-- ComptabiliteRoutingModule -->
<g id="node23" class="node">
<title>ComptabiliteRoutingModule</title>
<polygon fill="#8dd3c7" stroke="#000000" points="2989.7771,-198 2986.7771,-202 2965.7771,-202 2962.7771,-198 2812.2229,-198 2812.2229,-162 2989.7771,-162 2989.7771,-198"/>
<text text-anchor="middle" x="2901" y="-175.8" font-family="Times,serif" font-size="14.00" fill="#000000">ComptabiliteRoutingModule</text>
</g>
<!-- ComptabiliteRoutingModule&#45;&gt;ComptabiliteModule -->
<g id="edge21" class="edge">
<title>ComptabiliteRoutingModule&#45;&gt;ComptabiliteModule</title>
<path fill="none" stroke="#000000" d="M2902.1099,-198.0109C2902.1099,-198.0109 2902.1099,-227.855 2902.1099,-227.855"/>
<polygon fill="#000000" stroke="#000000" points="2898.61,-227.8549 2902.1099,-237.855 2905.61,-227.855 2898.61,-227.8549"/>
</g>
<!-- LoginComponent -->
<g id="node25" class="node">
<title>LoginComponent</title>
<polygon fill="#ffffb3" stroke="#000000" points="554.2758,-198 439.7242,-198 439.7242,-162 554.2758,-162 554.2758,-198"/>
<text text-anchor="middle" x="497" y="-175.8" font-family="Times,serif" font-size="14.00" fill="#000000">LoginComponent</text>
</g>
<!-- LoginComponent&#45;&gt;CoreModule -->
<g id="edge24" class="edge">
<title>LoginComponent&#45;&gt;CoreModule</title>
<path fill="none" stroke="#000000" d="M511.758,-198.0511C511.758,-212.373 511.758,-230 511.758,-230 511.758,-230 1380.1125,-230 1380.1125,-230 1380.1125,-230 1380.1125,-230.7942 1380.1125,-230.7942"/>
<polygon fill="#000000" stroke="#000000" points="1376.6126,-227.9421 1380.1125,-237.9421 1383.6126,-227.9422 1376.6126,-227.9421"/>
</g>
<!-- AdminComponent -->
<g id="node26" class="node">
<title>AdminComponent</title>
<polygon fill="#ffffb3" stroke="#000000" points="422.2204,-198 301.7796,-198 301.7796,-162 422.2204,-162 422.2204,-198"/>
<text text-anchor="middle" x="362" y="-175.8" font-family="Times,serif" font-size="14.00" fill="#000000">AdminComponent</text>
</g>
<!-- AdminComponent&#45;&gt;CoreModule -->
<g id="edge25" class="edge">
<title>AdminComponent&#45;&gt;CoreModule</title>
<path fill="none" stroke="#000000" d="M383.6953,-198.2396C383.6953,-213.5706 383.6953,-233 383.6953,-233 383.6953,-233 1371.6687,-233 1371.6687,-233 1371.6687,-233 1371.6687,-233.4878 1371.6687,-233.4878"/>
<polygon fill="#000000" stroke="#000000" points="1368.1689,-227.8776 1371.6687,-237.8777 1375.1689,-227.8778 1368.1689,-227.8776"/>
</g>
<!-- EmployesComponent -->
<g id="node27" class="node">
<title>EmployesComponent</title>
<polygon fill="#ffffb3" stroke="#000000" points="283.8258,-198 146.1742,-198 146.1742,-162 283.8258,-162 283.8258,-198"/>
<text text-anchor="middle" x="215" y="-175.8" font-family="Times,serif" font-size="14.00" fill="#000000">EmployesComponent</text>
</g>
<!-- EmployesComponent&#45;&gt;CoreModule -->
<g id="edge26" class="edge">
<title>EmployesComponent&#45;&gt;CoreModule</title>
<path fill="none" stroke="#000000" d="M240.0537,-198.027C240.0537,-214.3976 240.0537,-236 240.0537,-236 240.0537,-236 1363.225,-236 1363.225,-236 1363.225,-236 1363.225,-236.1846 1363.225,-236.1846"/>
<polygon fill="#000000" stroke="#000000" points="1359.7256,-227.8455 1363.225,-237.8457 1366.7256,-227.8459 1359.7256,-227.8455"/>
</g>
<!-- CoreRootingModule&#45;&gt;CoreModule -->
<g id="edge28" class="edge">
<title>CoreRootingModule&#45;&gt;CoreModule</title>
<path fill="none" stroke="#000000" d="M1599.3887,-198.1686C1599.3887,-219.498 1599.3887,-252 1599.3887,-252 1599.3887,-252 1450.4175,-252 1450.4175,-252"/>
<polygon fill="#000000" stroke="#000000" points="1450.4175,-248.5001 1440.4175,-252 1450.4174,-255.5001 1450.4175,-248.5001"/>
</g>
<!-- CoreRootingModule&#45;&gt;RouterModule  -->
<g id="edge41" class="edge">
<title>CoreRootingModule&#45;&gt;RouterModule </title>
<path fill="none" stroke="#000000" stroke-dasharray="5,2" d="M1687.3083,-198.1446C1687.3083,-236.2265 1687.3083,-321 1687.3083,-321 1687.3083,-321 1839.3253,-321 1839.3253,-321"/>
<polygon fill="#000000" stroke="#000000" points="1839.3253,-324.5001 1849.3253,-321 1839.3252,-317.5001 1839.3253,-324.5001"/>
</g>
<!-- HttpClientModule -->
<g id="node29" class="node">
<title>HttpClientModule</title>
<polygon fill="#8dd3c7" stroke="#000000" points="1576.1611,-198 1573.1611,-202 1552.1611,-202 1549.1611,-198 1457.8389,-198 1457.8389,-162 1576.1611,-162 1576.1611,-198"/>
<text text-anchor="middle" x="1517" y="-175.8" font-family="Times,serif" font-size="14.00" fill="#000000">HttpClientModule</text>
</g>
<!-- HttpClientModule&#45;&gt;CoreModule -->
<g id="edge30" class="edge">
<title>HttpClientModule&#45;&gt;CoreModule</title>
<path fill="none" stroke="#000000" d="M1464.8121,-198.308C1464.8121,-218.1455 1464.8121,-247 1464.8121,-247 1464.8121,-247 1450.3303,-247 1450.3303,-247"/>
<polygon fill="#000000" stroke="#000000" points="1450.3304,-243.5001 1440.3303,-247 1450.3303,-250.5001 1450.3304,-243.5001"/>
</g>
<!-- HttpModule -->
<g id="node30" class="node">
<title>HttpModule</title>
<polygon fill="#8dd3c7" stroke="#000000" points="1439.4387,-198 1436.4387,-202 1415.4387,-202 1412.4387,-198 1354.5613,-198 1354.5613,-162 1439.4387,-162 1439.4387,-198"/>
<text text-anchor="middle" x="1397" y="-175.8" font-family="Times,serif" font-size="14.00" fill="#000000">HttpModule</text>
</g>
<!-- HttpModule&#45;&gt;CoreModule -->
<g id="edge32" class="edge">
<title>HttpModule&#45;&gt;CoreModule</title>
<path fill="none" stroke="#000000" d="M1422.3313,-198.0109C1422.3313,-198.0109 1422.3313,-227.855 1422.3313,-227.855"/>
<polygon fill="#000000" stroke="#000000" points="1418.8314,-227.8549 1422.3313,-237.855 1425.8314,-227.855 1418.8314,-227.8549"/>
</g>
<!-- AuthenticationService -->
<g id="node35" class="node">
<title>AuthenticationService</title>
<ellipse fill="#fdb462" stroke="#000000" cx="1234" cy="-180" rx="97.2683" ry="18"/>
<text text-anchor="middle" x="1234" y="-175.8" font-family="Times,serif" font-size="14.00" fill="#000000">AuthenticationService</text>
</g>
<!-- AuthenticationService&#45;&gt;CoreModule -->
<g id="edge38" class="edge">
<title>AuthenticationService&#45;&gt;CoreModule</title>
<path fill="none" stroke="#000000" d="M1331.4369,-180C1339.4501,-180 1344.553,-180 1344.553,-180 1344.553,-180 1344.553,-256 1344.553,-256 1344.553,-256 1345.4665,-256 1345.4665,-256"/>
<polygon fill="#000000" stroke="#000000" points="1343.6886,-259.5001 1353.6885,-256 1343.6885,-252.5001 1343.6886,-259.5001"/>
</g>
<!-- RouterModule.forRoot(args) -->
<g id="node36" class="node">
<title>RouterModule.forRoot(args)</title>
<polygon fill="#8dd3c7" stroke="#000000" points="1748.8419,-122 1745.8419,-126 1724.8419,-126 1721.8419,-122 1571.1581,-122 1571.1581,-86 1748.8419,-86 1748.8419,-122"/>
<text text-anchor="middle" x="1660" y="-99.8" font-family="Times,serif" font-size="14.00" fill="#000000">RouterModule.forRoot(args)</text>
</g>
<!-- RouterModule.forRoot(args)&#45;&gt;CoreRootingModule -->
<g id="edge40" class="edge">
<title>RouterModule.forRoot(args)&#45;&gt;CoreRootingModule</title>
<path fill="none" stroke="#000000" d="M1660,-122.0109C1660,-122.0109 1660,-151.855 1660,-151.855"/>
<polygon fill="#000000" stroke="#000000" points="1656.5001,-151.8549 1660,-161.855 1663.5001,-151.855 1656.5001,-151.8549"/>
</g>
<!-- ProduitsComponent -->
<g id="node39" class="node">
<title>ProduitsComponent</title>
<polygon fill="#ffffb3" stroke="#000000" points="3158.0014,-198 3029.9986,-198 3029.9986,-162 3158.0014,-162 3158.0014,-198"/>
<text text-anchor="middle" x="3094" y="-175.8" font-family="Times,serif" font-size="14.00" fill="#000000">ProduitsComponent</text>
</g>
<!-- ProduitsComponent&#45;&gt;ProduitsModule -->
<g id="edge46" class="edge">
<title>ProduitsComponent&#45;&gt;ProduitsModule</title>
<path fill="none" stroke="#000000" d="M3101.7031,-198.0109C3101.7031,-198.0109 3101.7031,-227.855 3101.7031,-227.855"/>
<polygon fill="#000000" stroke="#000000" points="3098.2032,-227.8549 3101.7031,-237.855 3105.2032,-227.855 3098.2032,-227.8549"/>
</g>
</g>
</svg>
